<svg width="1916" height="1985" viewBox="0 0 1916 1985" fill="none" xmlns="http://www.w3.org/2000/svg">
<path d="M642.104 1192.15C621.778 1180.06 600.994 1166.16 579.996 1155.2C539.129 1133.94 499.475 1136.34 463.076 1166.68C406.675 1212.64 368.584 1274.08 339.071 1339.1C327.217 1364.16 319.422 1390.11 309.369 1414.71C305.122 1424.42 302.005 1434.8 296.629 1443.83C287.22 1459.64 273.267 1465.11 259.959 1461.77C243.263 1456.43 237.132 1443.6 235.948 1427.61C234.791 1419.27 235.436 1410.48 237.209 1402.36C261.556 1279.21 318.866 1172.62 416.612 1093.15C476.158 1044.47 544.203 1040.61 612.601 1072.14C636.529 1083.32 661.372 1098.1 683.284 1112.67C779.968 1176.32 888.479 1207.24 1003.01 1220.33C1070.19 1228.2 1134.37 1212.86 1193.97 1179.51C1258.52 1142.98 1317.18 1098.36 1372.45 1051.73C1495.36 950.53 1618.94 848.2 1743.43 749.472C1777.82 722.524 1817.17 700.065 1853.6 677.392C1863.49 671.045 1876.77 666.713 1888.71 664.64C1894.11 663.268 1903.82 667.514 1906.99 672.46C1910.16 677.404 1908.84 687.326 1905.48 692.973C1896.96 704.724 1888.44 716.475 1876.53 726.211C1810.73 787.987 1743.79 849.088 1677.52 909.059C1596.2 981.482 1513.75 1053.23 1431.3 1124.98C1377.16 1172.29 1319.85 1214.65 1258.23 1251.39C1169.41 1305.58 1073.03 1326.23 970.432 1311.06C853.401 1291.89 741.503 1258.95 642.104 1192.15Z" fill="#F01E31" fill-opacity="0.08"/>
<path d="M211.457 1134.71C192.64 1166.33 173.824 1197.95 155.007 1229.58C141.567 1252.16 125.598 1261.01 106.643 1254.32C88.8182 1248.3 78.3853 1229.86 81.9051 1205.96C83.8936 1194.91 86.5542 1182.73 90.8012 1173.02C145.582 1052.69 214.371 942.226 315.692 854.177C374.781 803.698 440.672 764.913 515.653 746.83C606.844 724.629 688.496 744.158 759.477 804.746C789.994 830.55 819.166 858.614 851.699 881.03C881.973 902.103 913.591 920.917 946.768 934.542C1014.25 962.463 1080.93 953.199 1141.17 911.055C1171.07 889.082 1197.57 865.094 1225.88 840.648C1332.58 743.564 1435.89 644.464 1548.93 557.274C1557.02 551.384 1563.98 544.822 1572.53 540.734C1578.61 538.232 1588.07 537.746 1592.59 540.434C1597.11 543.121 1599.85 553.929 1598.29 559.119C1593.61 574.687 1587.81 589.584 1579.29 601.335C1549.91 640.434 1522.32 679.076 1490.44 712.1C1417.24 786.296 1342.45 858.019 1267.67 929.741C1252.4 945.124 1234.87 959.162 1217.34 973.201C1104.3 1060.39 983.961 1062.19 860.232 997.744C806.943 969.094 762.848 927.563 718.539 888.963C709.72 880.657 699.099 872.809 690.28 864.503C650.273 831.521 603.815 822.228 553.595 832.106C498.643 842.227 450.279 866.973 406.003 900.269C340.381 951.448 285.837 1012.28 241.913 1080.96C231.161 1099.03 221.08 1115.97 211.457 1134.71C210.328 1134.04 210.328 1134.04 211.457 1134.71Z" fill="#F01E31" fill-opacity="0.08"/>
</svg>
