<svg width="392" height="117" viewBox="0 0 392 117" fill="none" xmlns="http://www.w3.org/2000/svg">
<mask id="path-1-inside-1_1298_4398" fill="white">
<path d="M392 24H57V94H392V24Z"/>
</mask>
<path d="M392 24H57V94H392V24Z" fill="url(#paint0_linear_1298_4398)"/>
<path d="M57 93H392V95H57V93Z" fill="url(#paint1_linear_1298_4398)" fill-opacity="0.4" mask="url(#path-1-inside-1_1298_4398)"/>
<path d="M44.1939 21.25L22.9439 58.0561L44.1939 94.8622L86.6939 94.8622L107.944 58.0561L86.6939 21.25L44.1939 21.25Z" fill="#0D0D0D" stroke="url(#paint2_angular_1298_4398)" stroke-width="2"/>
<path d="M46.524 25.75L27.774 58.226L46.524 90.7019L84.024 90.7019L102.774 58.226L84.024 25.75L46.524 25.75Z" fill="#131313"/>
<path d="M83.7354 26.25L46.8127 26.25L28.3514 58.226L46.8127 90.2019L83.7354 90.2019L102.197 58.226L83.7354 26.25Z" stroke="url(#paint3_angular_1298_4398)" stroke-opacity="0.46"/>
<path d="M22 95V75.881L11.4388 58.5L22 40.8707V22L5 50.4303L0 58.5L5 66.5697L22 95Z" fill="url(#paint4_linear_1298_4398)" fill-opacity="0.5"/>
<defs>
<linearGradient id="paint0_linear_1298_4398" x1="57" y1="50.5" x2="395.969" y2="52.0571" gradientUnits="userSpaceOnUse">
<stop stop-color="#1B1B1B"/>
<stop offset="1" stop-color="#323232" stop-opacity="0"/>
</linearGradient>
<linearGradient id="paint1_linear_1298_4398" x1="81.126" y1="94" x2="392.352" y2="94" gradientUnits="userSpaceOnUse">
<stop stop-color="#FFFF00"/>
<stop offset="1" stop-color="#FFFFCC" stop-opacity="0"/>
</linearGradient>
<radialGradient id="paint2_angular_1298_4398" cx="0" cy="0" r="1" gradientUnits="userSpaceOnUse" gradientTransform="translate(65.4439 58.0561) rotate(-90.5583) scale(45.5582)">
<stop stop-color="#FFFF00"/>
<stop offset="1" stop-color="#D43812" stop-opacity="0"/>
</radialGradient>
<radialGradient id="paint3_angular_1298_4398" cx="0" cy="0" r="1" gradientUnits="userSpaceOnUse" gradientTransform="translate(65.274 58.2259) rotate(-89.3237) scale(36.2285)">
<stop stop-color="#D1D1D1"/>
<stop offset="1" stop-color="#D1D1D1" stop-opacity="0"/>
</radialGradient>
<linearGradient id="paint4_linear_1298_4398" x1="5" y1="56.126" x2="24" y2="56.126" gradientUnits="userSpaceOnUse">
<stop stop-color="#FFFF00"/>
<stop offset="1" stop-color="#FFCE70" stop-opacity="0"/>
</linearGradient>
</defs>
</svg>
