<svg width="26" height="26" viewBox="0 0 26 26" fill="none" xmlns="http://www.w3.org/2000/svg">
<circle cx="13" cy="13" r="12" stroke="#F01E31"/>
<path d="M6.60547 17.583C7.31554 18.529 8.21614 19.3155 9.24909 19.8917C10.2952 20.476 11.4502 20.8389 12.6425 20.9581C12.0264 20.0666 11.1315 19.2471 10.0149 18.6219C8.96943 18.0272 7.80488 17.6724 6.60547 17.583Z" fill="url(#paint0_linear_1371_2800)"/>
<path d="M11.5162 16.1352C9.36405 14.9317 7.03474 14.6254 5.36719 15.1672C5.52872 15.6807 5.74017 16.1741 6.00152 16.6473C7.44962 16.6153 9.03031 16.9936 10.5024 17.8154C11.9734 18.6383 13.0992 19.7732 13.7872 21.0007C14.3442 20.984 14.8944 20.9161 15.4376 20.7973C15.1016 19.1354 13.6672 17.3399 11.5162 16.1352Z" fill="url(#paint1_linear_1371_2800)"/>
<path d="M21.7724 11.2507C21.4951 10.1739 20.9995 9.16553 20.3163 8.28822C19.6222 7.39985 18.7576 6.65919 17.7732 6.10978C16.7761 5.55501 15.6807 5.19943 14.5479 5.06284C13.4108 4.92712 12.2583 5.01172 11.1533 5.312C12.9957 5.52916 15.0393 6.19435 17.0452 7.31558C19.0499 8.43566 20.6649 9.81633 21.7724 11.2496" fill="url(#paint2_linear_1371_2800)"/>
<path d="M19.0923 15.1793C18.1505 13.6717 16.5356 12.2294 14.5457 11.1161C12.557 10.004 10.454 9.36857 8.62871 9.32629C7.02287 9.28971 5.81707 9.74003 5.32332 10.5595L5.31189 10.5732C5.26844 10.7263 5.22956 10.8807 5.19531 11.0361C5.88565 10.7732 6.68685 10.627 7.57606 10.6109C9.55563 10.5755 11.7706 11.1847 13.8154 12.3276C15.8601 13.4706 17.5071 15.0216 18.4557 16.6937C18.8809 17.448 19.146 18.1886 19.25 18.8973C19.3735 18.7921 19.4931 18.6832 19.6089 18.5704L19.6181 18.5544C20.1118 17.7338 19.921 16.5039 19.0923 15.1793Z" fill="url(#paint3_linear_1371_2800)"/>
<path d="M13.0326 13.6242C9.98551 11.9212 6.6184 11.6538 5 12.8424C5.00381 13.2158 5.03315 13.5865 5.08801 13.9545C5.56478 13.8149 6.05532 13.7275 6.55097 13.6939C8.36139 13.5625 10.3558 14.0482 12.1651 15.0609C13.9755 16.0735 15.4019 17.5011 16.1802 19.0772C16.3959 19.5107 16.5589 19.9618 16.6694 20.4304C17.0298 20.2948 17.3792 20.1359 17.7175 19.9538C17.9884 18.0108 16.0808 15.3283 13.0326 13.6242Z" fill="url(#paint4_linear_1371_2800)"/>
<path d="M20.66 12.6564C19.7056 11.1511 18.0769 9.70415 16.0734 8.58406C14.0698 7.46398 11.9588 6.81936 10.1289 6.76679C8.73225 6.72793 7.65103 7.05367 7.08984 7.66971C9.41801 7.29026 12.4891 7.92802 15.4653 9.59214C18.4415 11.2563 20.54 13.5079 21.3492 15.6429C21.6269 14.8691 21.3869 13.8039 20.66 12.6564Z" fill="url(#paint5_linear_1371_2800)"/>
<defs>
<linearGradient id="paint0_linear_1371_2800" x1="31.5707" y1="-39.252" x2="-8.83907" y2="3.04597" gradientUnits="userSpaceOnUse">
<stop stop-color="#F01E31"/>
<stop offset="1" stop-color="#00BEF0"/>
</linearGradient>
<linearGradient id="paint1_linear_1371_2800" x1="22.9925" y1="-12.4931" x2="0.750853" y2="12.695" gradientUnits="userSpaceOnUse">
<stop stop-color="#F01E31"/>
<stop offset="1" stop-color="#00BEF0"/>
</linearGradient>
<linearGradient id="paint2_linear_1371_2800" x1="12.9214" y1="13.3194" x2="-8.81728" y2="37.2789" gradientUnits="userSpaceOnUse">
<stop stop-color="#F01E31"/>
<stop offset="1" stop-color="#00BEF0"/>
</linearGradient>
<linearGradient id="paint3_linear_1371_2800" x1="17.5276" y1="3.20127" x2="3.54262" y2="20.2619" gradientUnits="userSpaceOnUse">
<stop stop-color="#F01E31"/>
<stop offset="1" stop-color="#00BEF0"/>
</linearGradient>
<linearGradient id="paint4_linear_1371_2800" x1="19.7016" y1="-2.4341" x2="3.61019" y2="17.2302" gradientUnits="userSpaceOnUse">
<stop stop-color="#F01E31"/>
<stop offset="1" stop-color="#00BEF0"/>
</linearGradient>
<linearGradient id="paint5_linear_1371_2800" x1="16.1694" y1="8.24918" x2="8.89454" y2="21.241" gradientUnits="userSpaceOnUse">
<stop stop-color="#F01E31"/>
<stop offset="1" stop-color="#00BEF0"/>
</linearGradient>
</defs>
</svg>
