<svg width="358" height="631" viewBox="0 0 358 631" fill="none" xmlns="http://www.w3.org/2000/svg">
<g filter="url(#filter0_b_1391_4409)">
<path d="M1.67773 383.402V75.1629L11.2623 38.6191H122.275L132.07 1.6781H356.096V616.736L353.609 628.483H10.6303L7.0493 614.978V403.66L1.67773 383.402Z" fill="black" fill-opacity="0.72"/>
<path d="M1.67773 383.402V75.1629L11.2623 38.6191H122.275L132.07 1.6781H356.096V616.736L353.609 628.483H10.6303L7.0493 614.978V403.66L1.67773 383.402Z" stroke="#554420" stroke-width="3"/>
</g>
<g filter="url(#filter1_b_1391_4409)">
<path d="M4.39062 382.045V83.7094L13.8285 48.3397H123.142L132.787 12.5856H353.836L354.062 610.023L352.028 620.931L13.2062 619.253L9.67997 606.181V401.652L4.39062 382.045Z" stroke="#FFFF00" stroke-width="3"/>
</g>
<rect x="355.645" y="290.327" width="0.904127" height="52.024" fill="#FFFF00"/>
<rect x="6.42578" y="482.479" width="1.13016" height="52.024" fill="#FFFF00"/>
<rect x="171.881" y="631" width="4.19548" height="14.014" transform="rotate(-90 171.881 631)" fill="#FFFF00"/>
<path d="M2.13016 87.2667H1V75.0998L11.1714 37.3405H21.3429L20.4387 40.6968H11.6235L2.13016 77.1975V87.2667Z" fill="#FFFF00"/>
<path d="M22.3609 36.9197L21.3438 40.6956H21.9088L22.926 36.9197H22.3609Z" fill="#FFFF00"/>
<path d="M24.1675 36.9197L23.1504 40.6956H23.7155L24.7326 36.9197H24.1675Z" fill="#FFFF00"/>
<path d="M25.9761 36.9197L24.959 40.6956H25.5241L26.5412 36.9197H25.9761Z" fill="#FFFF00"/>
<path d="M27.7847 36.9197L26.7676 40.6956H27.3327L28.3498 36.9197H27.7847Z" fill="#FFFF00"/>
<path d="M357.001 6.10352e-05V17.6211H356.323H355.645V4.19555H352.028L351.576 6.10352e-05H357.001Z" fill="#FFFF00"/>
<path d="M354.74 631L356.548 621.77V631H354.74Z" fill="#FFFF00"/>
<line x1="282.184" y1="629" x2="303.431" y2="629" stroke="url(#paint0_linear_1391_4409)" stroke-width="4"/>
<line x1="354.549" y1="154.393" x2="354.549" y2="75.5182" stroke="url(#paint1_linear_1391_4409)" stroke-width="4"/>
<path d="M157.016 53.0922H153.512V57.7722H150.872V40.9722H156.56C157.616 40.9722 158.496 41.2362 159.2 41.7642C159.904 42.2762 160.424 42.9642 160.76 43.8282C161.112 44.6922 161.288 45.6442 161.288 46.6842C161.288 47.4682 161.256 48.1482 161.192 48.7242C161.128 49.3002 160.96 49.9002 160.688 50.5242C160.432 51.1482 160.016 51.7082 159.44 52.2042L161.312 57.7722H158.624L157.016 53.0922ZM155.936 50.5722C156.72 50.5722 157.296 50.3722 157.664 49.9722C158.048 49.5562 158.28 49.0842 158.36 48.5562C158.456 48.0282 158.504 47.4042 158.504 46.6842C158.504 45.8362 158.384 45.1962 158.144 44.7642C157.904 44.3162 157.568 44.0202 157.136 43.8762C156.704 43.7162 156.144 43.6362 155.456 43.6362H153.512V50.5722H155.936ZM170.827 53.3802H166.963L166.027 57.7722H163.051L166.987 40.9722H170.707L174.955 57.7722H171.811L170.827 53.3802ZM167.587 50.5722H170.203L168.835 45.3882L167.587 50.5722ZM178.155 43.5642L176.667 43.5162V40.9722H180.795V57.7722H178.155V43.5642ZM186.447 53.0922C186.527 53.7962 186.815 54.3642 187.311 54.7962C187.807 55.2282 188.455 55.4442 189.255 55.4442C189.927 55.4442 190.471 55.3322 190.887 55.1082C191.319 54.8842 191.631 54.6122 191.823 54.2922C192.015 53.9722 192.111 53.6602 192.111 53.3562C192.111 52.6522 191.935 52.0682 191.583 51.6042C191.247 51.1242 190.823 50.7482 190.311 50.4762C189.815 50.1882 189.135 49.8602 188.271 49.4922C187.327 49.0922 186.575 48.7322 186.015 48.4122C185.471 48.0762 184.999 47.6282 184.599 47.0682C184.215 46.4922 184.023 45.7642 184.023 44.8842C184.023 44.1802 184.223 43.5162 184.623 42.8922C185.023 42.2522 185.631 41.7322 186.447 41.3322C187.263 40.9322 188.263 40.7322 189.447 40.7322C190.231 40.7322 190.879 40.7882 191.391 40.9002C191.903 41.0122 192.423 41.1962 192.951 41.4522L192.111 43.9482C191.535 43.7562 191.063 43.6202 190.695 43.5402C190.343 43.4602 189.935 43.4202 189.471 43.4202C188.559 43.4202 187.887 43.5802 187.455 43.9002C187.023 44.2202 186.831 44.6282 186.879 45.1242C186.927 45.5242 187.167 45.8682 187.599 46.1562C188.047 46.4442 188.735 46.7962 189.663 47.2122C190.751 47.6922 191.655 48.1482 192.375 48.5802C193.095 49.0122 193.711 49.6042 194.223 50.3562C194.751 51.1082 195.015 52.0282 195.015 53.1162C195.015 54.5402 194.543 55.7162 193.599 56.6442C192.655 57.5722 191.215 58.0362 189.279 58.0362C188.095 58.0362 187.079 57.8202 186.231 57.3882C185.399 56.9402 184.759 56.3722 184.311 55.6842C183.879 54.9802 183.647 54.2522 183.615 53.5002L186.447 53.0922ZM198.052 40.9722H206.068V43.6122H200.692V47.8602H203.98L203.236 50.3802H200.692V55.3722H206.02V57.7722H198.052V40.9722ZM216.968 43.5642L215.48 43.5162V40.9722H219.608V57.7722H216.968V43.5642ZM226.051 46.4202V57.7722H223.411V40.9722H226.051L232.555 52.2522V40.9722H235.219V57.7722H232.555L226.051 46.4202ZM239.02 40.9722H247.036V43.6122H241.66V47.8602H245.02L244.156 50.3802H241.66V57.7722H239.02V40.9722ZM259.569 53.3322C259.569 54.9482 259.073 56.1402 258.081 56.9082C257.105 57.6602 255.929 58.0362 254.553 58.0362C253.689 58.0362 252.873 57.8842 252.105 57.5802C251.337 57.2602 250.705 56.7482 250.209 56.0442C249.729 55.3402 249.489 54.4362 249.489 53.3322V45.6042C249.489 43.9562 249.937 42.7082 250.833 41.8602C251.745 41.0122 252.993 40.5882 254.577 40.5882C256.161 40.5882 257.385 41.0362 258.249 41.9322C259.129 42.8282 259.569 44.0602 259.569 45.6282V53.3322ZM256.929 46.4922C256.929 45.8202 256.873 45.2682 256.761 44.8362C256.649 44.4042 256.417 44.0682 256.065 43.8282C255.713 43.5722 255.201 43.4442 254.529 43.4442C253.857 43.4442 253.345 43.5642 252.993 43.8042C252.641 44.0442 252.409 44.3802 252.297 44.8122C252.185 45.2282 252.129 45.7802 252.129 46.4682V52.8762C252.129 53.6442 252.321 54.2522 252.705 54.7002C253.105 55.1322 253.713 55.3482 254.529 55.3482C255.281 55.3482 255.865 55.1162 256.281 54.6522C256.713 54.1882 256.929 53.5802 256.929 52.8282V46.4922Z" fill="#FFFF00"/>
<line x1="320.5" y1="147.5" x2="41.5" y2="147.5" stroke="url(#paint2_linear_1391_4409)" stroke-linecap="round"/>
<path d="M70.56 101H75.38C76.6867 101 77.6533 101.407 78.28 102.22C78.92 103.033 79.24 104.1 79.24 105.42C79.24 106.26 79.1667 107.033 79.02 107.74C78.8733 108.433 78.5267 109.053 77.98 109.6C77.4333 110.133 76.6133 110.4 75.52 110.4H72V115H70.56V101ZM75.34 109C76.0733 109 76.62 108.82 76.98 108.46C77.3533 108.087 77.58 107.66 77.66 107.18C77.7533 106.7 77.8 106.16 77.8 105.56C77.8 104.453 77.58 103.653 77.14 103.16C76.7 102.653 76.0733 102.4 75.26 102.4H72V109H75.34ZM87.1375 110.36C86.8975 110.387 86.6842 110.4 86.4975 110.4H82.9375V115H81.4975V101H86.3575C87.6375 101 88.5908 101.407 89.2175 102.22C89.8575 103.033 90.1775 104.1 90.1775 105.42C90.1775 106.42 90.0708 107.307 89.8575 108.08C89.6575 108.84 89.1975 109.447 88.4775 109.9L90.1975 115H88.7175L87.1375 110.36ZM86.3175 109C87.0375 109 87.5708 108.813 87.9175 108.44C88.2642 108.053 88.4775 107.62 88.5575 107.14C88.6508 106.647 88.6975 106.093 88.6975 105.48C88.6975 103.427 87.8442 102.4 86.1375 102.4H82.9375V109H86.3175ZM93.8266 102.36L92.5066 102.32V101H95.2666V115H93.8266V102.36ZM98.3725 101H99.9525L103.153 112.74L106.333 101H107.933L104.093 115H102.233L98.3725 101ZM113.684 110.48H109.524L108.204 115H106.644L110.764 101H112.424L116.684 115H115.064L113.684 110.48ZM109.904 109H113.324L111.584 103.32L109.904 109ZM118.451 102.36H115.211V101H123.251V102.36H119.891V115H118.451V102.36ZM124.818 101H131.498V102.38H126.258V106.74H129.758L129.298 108.14H126.258V113.7H131.458V115H124.818V101ZM145.321 110.36C145.081 110.387 144.868 110.4 144.681 110.4H141.121V115H139.681V101H144.541C145.821 101 146.774 101.407 147.401 102.22C148.041 103.033 148.361 104.1 148.361 105.42C148.361 106.42 148.254 107.307 148.041 108.08C147.841 108.84 147.381 109.447 146.661 109.9L148.381 115H146.901L145.321 110.36ZM144.501 109C145.221 109 145.754 108.813 146.101 108.44C146.448 108.053 146.661 107.62 146.741 107.14C146.834 106.647 146.881 106.093 146.881 105.48C146.881 103.427 146.028 102.4 144.321 102.4H141.121V109H144.501ZM158.348 111.3C158.348 112.647 157.934 113.64 157.108 114.28C156.294 114.907 155.314 115.22 154.168 115.22C153.448 115.22 152.768 115.093 152.128 114.84C151.488 114.573 150.961 114.147 150.548 113.56C150.148 112.973 149.948 112.22 149.948 111.3V104.86C149.948 103.487 150.321 102.447 151.068 101.74C151.828 101.033 152.868 100.68 154.188 100.68C155.508 100.68 156.528 101.053 157.248 101.8C157.981 102.547 158.348 103.573 158.348 104.88V111.3ZM156.908 104.96C156.908 104.04 156.668 103.34 156.188 102.86C155.721 102.38 155.041 102.14 154.148 102.14C153.254 102.14 152.568 102.38 152.088 102.86C151.621 103.327 151.388 104.027 151.388 104.96V111.18C151.388 112.033 151.641 112.687 152.148 113.14C152.654 113.58 153.321 113.8 154.148 113.8C154.974 113.8 155.641 113.58 156.148 113.14C156.654 112.687 156.908 112.02 156.908 111.14V104.96ZM169.564 100.98V111.28C169.564 112.627 169.151 113.607 168.324 114.22C167.511 114.833 166.524 115.14 165.364 115.14C164.204 115.14 163.211 114.833 162.384 114.22C161.557 113.607 161.144 112.627 161.144 111.28V100.98H162.584V111.12C162.584 111.947 162.831 112.6 163.324 113.08C163.831 113.56 164.504 113.8 165.344 113.8C166.197 113.8 166.871 113.56 167.364 113.08C167.871 112.6 168.124 111.947 168.124 111.12V100.98H169.564ZM173.992 103.8V115H172.552V101H173.992L180.932 112.18V101H182.392V115H180.932L173.992 103.8ZM185.56 100.98H189.32C190.827 100.98 191.973 101.393 192.76 102.22C193.56 103.047 193.96 104.147 193.96 105.52V111C193.96 113.667 192.547 115 189.72 115H185.56V100.98ZM192.52 105.32C192.52 104.32 192.227 103.58 191.64 103.1C191.067 102.607 190.36 102.36 189.52 102.36H187V113.7H189.4C190.293 113.7 191.033 113.533 191.62 113.2C192.22 112.867 192.52 112.2 192.52 111.2V105.32Z" fill="white"/>
<path d="M260.939 103.152C260.731 103.28 260.475 103.392 260.171 103.488C259.867 103.584 259.587 103.656 259.331 103.704C259.091 103.736 258.939 103.752 258.875 103.752L258.275 101.808C258.275 101.824 258.435 101.792 258.755 101.712C259.075 101.616 259.435 101.456 259.835 101.232C260.235 100.992 260.603 100.648 260.939 100.2H263.123V117H260.915L260.939 103.152ZM275.108 112.56C275.108 114.176 274.612 115.368 273.62 116.136C272.644 116.888 271.468 117.264 270.092 117.264C269.228 117.264 268.412 117.112 267.644 116.808C266.876 116.488 266.244 115.976 265.748 115.272C265.268 114.568 265.028 113.664 265.028 112.56V104.832C265.028 103.184 265.476 101.936 266.372 101.088C267.284 100.24 268.532 99.816 270.116 99.816C271.7 99.816 272.924 100.264 273.788 101.16C274.668 102.056 275.108 103.288 275.108 104.856V112.56ZM272.924 105.336C272.924 104.28 272.7 103.48 272.252 102.936C271.82 102.392 271.092 102.12 270.068 102.12C269.044 102.12 268.308 102.392 267.86 102.936C267.428 103.464 267.212 104.256 267.212 105.312V112.248C267.212 113.144 267.46 113.84 267.956 114.336C268.468 114.832 269.172 115.08 270.068 115.08C270.932 115.08 271.62 114.832 272.132 114.336C272.66 113.824 272.924 113.12 272.924 112.224V105.336ZM290.56 99.168L292.264 100.536L279.088 117L277.504 115.584L290.56 99.168ZM281.176 106.464C280.552 106.464 279.976 106.312 279.448 106.008C278.92 105.688 278.496 105.264 278.176 104.736C277.872 104.208 277.72 103.632 277.72 103.008C277.72 102.384 277.872 101.808 278.176 101.28C278.496 100.752 278.92 100.336 279.448 100.032C279.976 99.712 280.552 99.552 281.176 99.552C281.8 99.552 282.376 99.712 282.904 100.032C283.432 100.336 283.848 100.752 284.152 101.28C284.472 101.808 284.632 102.384 284.632 103.008C284.632 103.632 284.472 104.208 284.152 104.736C283.848 105.264 283.432 105.688 282.904 106.008C282.376 106.312 281.8 106.464 281.176 106.464ZM282.52 103.008C282.52 102.656 282.392 102.344 282.136 102.072C281.896 101.8 281.576 101.664 281.176 101.664C280.792 101.664 280.472 101.8 280.215 102.072C279.975 102.344 279.855 102.656 279.855 103.008C279.855 103.36 279.975 103.672 280.215 103.944C280.472 104.216 280.792 104.352 281.176 104.352C281.576 104.352 281.896 104.216 282.136 103.944C282.392 103.672 282.52 103.36 282.52 103.008ZM288.64 117.264C288.016 117.264 287.44 117.112 286.912 116.808C286.384 116.488 285.96 116.064 285.64 115.536C285.336 115.008 285.184 114.432 285.184 113.808C285.184 113.184 285.336 112.608 285.64 112.08C285.96 111.552 286.384 111.136 286.912 110.832C287.44 110.512 288.016 110.352 288.64 110.352C289.264 110.352 289.84 110.512 290.368 110.832C290.896 111.136 291.312 111.552 291.616 112.08C291.936 112.608 292.096 113.184 292.096 113.808C292.096 114.432 291.936 115.008 291.616 115.536C291.312 116.064 290.896 116.488 290.368 116.808C289.84 117.112 289.264 117.264 288.64 117.264ZM289.96 113.808C289.96 113.456 289.84 113.152 289.6 112.896C289.36 112.624 289.04 112.488 288.64 112.488C288.24 112.488 287.92 112.624 287.68 112.896C287.44 113.152 287.32 113.456 287.32 113.808C287.32 114.16 287.44 114.472 287.68 114.744C287.92 115 288.24 115.128 288.64 115.128C289.04 115.128 289.36 115 289.6 114.744C289.84 114.472 289.96 114.16 289.96 113.808Z" fill="#FFFF00"/>
<circle cx="51" cy="108" r="10" fill="#FFFF00" fill-opacity="0.32"/>
<path d="M60.6593 105.412C60.0747 103.23 58.7687 101.311 56.954 99.9657C55.1393 98.6209 52.9228 97.93 50.6653 98.0056L51 108L60.6593 105.412Z" fill="#FFFF00"/>
<line x1="320.5" y1="220.5" x2="41.5" y2="220.5" stroke="url(#paint3_linear_1391_4409)" stroke-linecap="round"/>
<path d="M70.56 174H75.38C76.6867 174 77.6533 174.407 78.28 175.22C78.92 176.033 79.24 177.1 79.24 178.42C79.24 179.26 79.1667 180.033 79.02 180.74C78.8733 181.433 78.5267 182.053 77.98 182.6C77.4333 183.133 76.6133 183.4 75.52 183.4H72V188H70.56V174ZM75.34 182C76.0733 182 76.62 181.82 76.98 181.46C77.3533 181.087 77.58 180.66 77.66 180.18C77.7533 179.7 77.8 179.16 77.8 178.56C77.8 177.453 77.58 176.653 77.14 176.16C76.7 175.653 76.0733 175.4 75.26 175.4H72V182H75.34ZM89.8375 173.98V184.28C89.8375 185.627 89.4242 186.607 88.5975 187.22C87.7842 187.833 86.7975 188.14 85.6375 188.14C84.4775 188.14 83.4842 187.833 82.6575 187.22C81.8308 186.607 81.4175 185.627 81.4175 184.28V173.98H82.8575V184.12C82.8575 184.947 83.1042 185.6 83.5975 186.08C84.1042 186.56 84.7775 186.8 85.6175 186.8C86.4708 186.8 87.1442 186.56 87.6375 186.08C88.1442 185.6 88.3975 184.947 88.3975 184.12V173.98H89.8375ZM92.8256 174H97.1456C98.239 174 99.1123 174.287 99.7656 174.86C100.432 175.433 100.766 176.293 100.766 177.44C100.766 177.96 100.679 178.46 100.506 178.94C100.332 179.407 99.979 179.82 99.4456 180.18L99.4256 180.22V180.24C100.012 180.507 100.499 180.94 100.886 181.54C101.286 182.127 101.486 182.893 101.486 183.84C101.486 184.973 101.166 185.953 100.526 186.78C99.8856 187.593 98.8323 188 97.3656 188H92.8256V174ZM96.8456 179.74C97.5923 179.74 98.1656 179.56 98.5656 179.2C98.979 178.84 99.1856 178.287 99.1856 177.54C99.1856 176.74 98.9723 176.187 98.5456 175.88C98.119 175.56 97.539 175.4 96.8056 175.4H94.2656V179.74H96.8456ZM97.0456 186.66C97.939 186.66 98.6323 186.453 99.1256 186.04C99.6323 185.627 99.8856 184.873 99.8856 183.78C99.8856 182.9 99.6323 182.24 99.1256 181.8C98.6323 181.36 98.0323 181.14 97.3256 181.14H94.2656V186.66H97.0456ZM103.744 174H105.184V186.7H110.964V188H103.744V174ZM113.592 175.36L112.272 175.32V174H115.032V188H113.592V175.36ZM125.118 187.54C123.931 187.98 122.825 188.2 121.798 188.2C120.638 188.2 119.698 187.893 118.978 187.28C118.258 186.667 117.898 185.687 117.898 184.34V177.92C117.898 176.907 118.038 176.14 118.318 175.62C118.611 175.1 119.051 174.66 119.638 174.3C120.225 173.967 120.945 173.8 121.798 173.8C122.838 173.8 123.778 174.02 124.618 174.46L124.198 175.6C123.478 175.333 122.778 175.2 122.098 175.2C121.365 175.2 120.718 175.387 120.158 175.76C119.611 176.133 119.338 176.793 119.338 177.74V184.3C119.338 185.14 119.571 185.767 120.038 186.18C120.505 186.593 121.165 186.8 122.018 186.8C122.845 186.8 123.785 186.62 124.838 186.26L125.118 187.54ZM138.016 183.36C137.776 183.387 137.563 183.4 137.376 183.4H133.816V188H132.376V174H137.236C138.516 174 139.47 174.407 140.096 175.22C140.736 176.033 141.056 177.1 141.056 178.42C141.056 179.42 140.95 180.307 140.736 181.08C140.536 181.84 140.076 182.447 139.356 182.9L141.076 188H139.596L138.016 183.36ZM137.196 182C137.916 182 138.45 181.813 138.796 181.44C139.143 181.053 139.356 180.62 139.436 180.14C139.53 179.647 139.576 179.093 139.576 178.48C139.576 176.427 138.723 175.4 137.016 175.4H133.816V182H137.196ZM151.043 184.3C151.043 185.647 150.629 186.64 149.803 187.28C148.989 187.907 148.009 188.22 146.863 188.22C146.143 188.22 145.463 188.093 144.823 187.84C144.183 187.573 143.656 187.147 143.243 186.56C142.843 185.973 142.643 185.22 142.643 184.3V177.86C142.643 176.487 143.016 175.447 143.763 174.74C144.523 174.033 145.563 173.68 146.883 173.68C148.203 173.68 149.223 174.053 149.943 174.8C150.676 175.547 151.043 176.573 151.043 177.88V184.3ZM149.603 177.96C149.603 177.04 149.363 176.34 148.883 175.86C148.416 175.38 147.736 175.14 146.843 175.14C145.949 175.14 145.263 175.38 144.783 175.86C144.316 176.327 144.083 177.027 144.083 177.96V184.18C144.083 185.033 144.336 185.687 144.843 186.14C145.349 186.58 146.016 186.8 146.843 186.8C147.669 186.8 148.336 186.58 148.843 186.14C149.349 185.687 149.603 185.02 149.603 184.14V177.96ZM162.259 173.98V184.28C162.259 185.627 161.846 186.607 161.019 187.22C160.206 187.833 159.219 188.14 158.059 188.14C156.899 188.14 155.906 187.833 155.079 187.22C154.253 186.607 153.839 185.627 153.839 184.28V173.98H155.279V184.12C155.279 184.947 155.526 185.6 156.019 186.08C156.526 186.56 157.199 186.8 158.039 186.8C158.893 186.8 159.566 186.56 160.059 186.08C160.566 185.6 160.819 184.947 160.819 184.12V173.98H162.259ZM166.688 176.8V188H165.248V174H166.688L173.628 185.18V174H175.088V188H173.628L166.688 176.8ZM178.255 173.98H182.015C183.522 173.98 184.669 174.393 185.455 175.22C186.255 176.047 186.655 177.147 186.655 178.52V184C186.655 186.667 185.242 188 182.415 188H178.255V173.98ZM185.215 178.32C185.215 177.32 184.922 176.58 184.335 176.1C183.762 175.607 183.055 175.36 182.215 175.36H179.695V186.7H182.095C182.989 186.7 183.729 186.533 184.315 186.2C184.915 185.867 185.215 185.2 185.215 184.2V178.32Z" fill="white"/>
<path d="M263.963 176.152C263.755 176.28 263.499 176.392 263.195 176.488C262.891 176.584 262.611 176.656 262.355 176.704C262.115 176.736 261.963 176.752 261.899 176.752L261.299 174.808C261.299 174.824 261.459 174.792 261.779 174.712C262.099 174.616 262.459 174.456 262.859 174.232C263.259 173.992 263.627 173.648 263.963 173.2H266.147V190H263.939L263.963 176.152ZM268.387 186.52C268.771 187.048 269.179 187.448 269.611 187.72C270.059 187.992 270.587 188.128 271.195 188.128C272.123 188.128 272.843 187.84 273.355 187.264C273.867 186.688 274.123 185.992 274.123 185.176C274.123 184.28 273.787 183.56 273.115 183.016C272.459 182.472 271.603 182.2 270.547 182.2H267.619L268.579 173.2H274.963V175.384H270.595L270.115 180.088H271.195C272.123 180.088 272.979 180.32 273.763 180.784C274.547 181.232 275.163 181.848 275.611 182.632C276.075 183.4 276.307 184.248 276.307 185.176C276.307 186.104 276.075 186.96 275.611 187.744C275.163 188.528 274.547 189.152 273.763 189.616C272.979 190.064 272.123 190.288 271.195 190.288C270.331 190.288 269.523 190.088 268.771 189.688C268.019 189.272 267.411 188.712 266.947 188.008L268.387 186.52ZM290.56 172.168L292.264 173.536L279.088 190L277.504 188.584L290.56 172.168ZM281.176 179.464C280.552 179.464 279.976 179.312 279.448 179.008C278.92 178.688 278.496 178.264 278.176 177.736C277.872 177.208 277.72 176.632 277.72 176.008C277.72 175.384 277.872 174.808 278.176 174.28C278.496 173.752 278.92 173.336 279.448 173.032C279.976 172.712 280.552 172.552 281.176 172.552C281.8 172.552 282.376 172.712 282.904 173.032C283.432 173.336 283.848 173.752 284.152 174.28C284.472 174.808 284.632 175.384 284.632 176.008C284.632 176.632 284.472 177.208 284.152 177.736C283.848 178.264 283.432 178.688 282.904 179.008C282.376 179.312 281.8 179.464 281.176 179.464ZM282.52 176.008C282.52 175.656 282.392 175.344 282.136 175.072C281.896 174.8 281.576 174.664 281.176 174.664C280.792 174.664 280.472 174.8 280.215 175.072C279.975 175.344 279.855 175.656 279.855 176.008C279.855 176.36 279.975 176.672 280.215 176.944C280.472 177.216 280.792 177.352 281.176 177.352C281.576 177.352 281.896 177.216 282.136 176.944C282.392 176.672 282.52 176.36 282.52 176.008ZM288.64 190.264C288.016 190.264 287.44 190.112 286.912 189.808C286.384 189.488 285.96 189.064 285.64 188.536C285.336 188.008 285.184 187.432 285.184 186.808C285.184 186.184 285.336 185.608 285.64 185.08C285.96 184.552 286.384 184.136 286.912 183.832C287.44 183.512 288.016 183.352 288.64 183.352C289.264 183.352 289.84 183.512 290.368 183.832C290.896 184.136 291.312 184.552 291.616 185.08C291.936 185.608 292.096 186.184 292.096 186.808C292.096 187.432 291.936 188.008 291.616 188.536C291.312 189.064 290.896 189.488 290.368 189.808C289.84 190.112 289.264 190.264 288.64 190.264ZM289.96 186.808C289.96 186.456 289.84 186.152 289.6 185.896C289.36 185.624 289.04 185.488 288.64 185.488C288.24 185.488 287.92 185.624 287.68 185.896C287.44 186.152 287.32 186.456 287.32 186.808C287.32 187.16 287.44 187.472 287.68 187.744C287.92 188 288.24 188.128 288.64 188.128C289.04 188.128 289.36 188 289.6 187.744C289.84 187.472 289.96 187.16 289.96 186.808Z" fill="#FFFF00"/>
<circle cx="51" cy="181" r="10" fill="#FFFF00" fill-opacity="0.32"/>
<path d="M60.6593 183.588C61.0625 182.083 61.1085 180.505 60.7938 178.98C60.479 177.454 59.8122 176.023 58.8464 174.801C57.8807 173.578 56.6427 172.598 55.2312 171.939C53.8197 171.28 52.2737 170.96 50.7165 171.004L51 181L60.6593 183.588Z" fill="#FFFF00"/>
<line x1="320.5" y1="293.5" x2="41.5" y2="293.5" stroke="url(#paint4_linear_1391_4409)" stroke-linecap="round"/>
<path d="M70.56 247H72V259.7H77.78V261H70.56V247ZM79.3686 247H84.1886C85.4953 247 86.4619 247.407 87.0886 248.22C87.7286 249.033 88.0486 250.1 88.0486 251.42C88.0486 252.26 87.9753 253.033 87.8286 253.74C87.6819 254.433 87.3353 255.053 86.7886 255.6C86.2419 256.133 85.4219 256.4 84.3286 256.4H80.8086V261H79.3686V247ZM84.1486 255C84.8819 255 85.4286 254.82 85.7886 254.46C86.1619 254.087 86.3886 253.66 86.4686 253.18C86.5619 252.7 86.6086 252.16 86.6086 251.56C86.6086 250.453 86.3886 249.653 85.9486 249.16C85.5086 248.653 84.8819 248.4 84.0686 248.4H80.8086V255H84.1486Z" fill="white"/>
<path d="M254.314 260.984L260.026 252.488C260.57 251.672 260.842 250.904 260.842 250.184C260.842 249.56 260.634 249.056 260.218 248.672C259.802 248.288 259.29 248.096 258.682 248.096C258.186 248.096 257.746 248.264 257.362 248.6C256.978 248.936 256.738 249.344 256.642 249.824L254.674 248.84C254.962 248.008 255.474 247.32 256.21 246.776C256.946 246.232 257.818 245.96 258.826 245.96C259.642 245.96 260.37 246.136 261.01 246.488C261.65 246.84 262.146 247.32 262.498 247.928C262.85 248.536 263.026 249.224 263.026 249.992C263.026 251.096 262.674 252.184 261.97 253.256L256.858 260.984H263.098V263H254.314V260.984ZM275.108 258.56C275.108 260.176 274.612 261.368 273.62 262.136C272.644 262.888 271.468 263.264 270.092 263.264C269.228 263.264 268.412 263.112 267.644 262.808C266.876 262.488 266.244 261.976 265.748 261.272C265.268 260.568 265.028 259.664 265.028 258.56V250.832C265.028 249.184 265.476 247.936 266.372 247.088C267.284 246.24 268.532 245.816 270.116 245.816C271.7 245.816 272.924 246.264 273.788 247.16C274.668 248.056 275.108 249.288 275.108 250.856V258.56ZM272.924 251.336C272.924 250.28 272.7 249.48 272.252 248.936C271.82 248.392 271.092 248.12 270.068 248.12C269.044 248.12 268.308 248.392 267.86 248.936C267.428 249.464 267.212 250.256 267.212 251.312V258.248C267.212 259.144 267.46 259.84 267.956 260.336C268.468 260.832 269.172 261.08 270.068 261.08C270.932 261.08 271.62 260.832 272.132 260.336C272.66 259.824 272.924 259.12 272.924 258.224V251.336ZM290.56 245.168L292.264 246.536L279.088 263L277.504 261.584L290.56 245.168ZM281.176 252.464C280.552 252.464 279.976 252.312 279.448 252.008C278.92 251.688 278.496 251.264 278.176 250.736C277.872 250.208 277.72 249.632 277.72 249.008C277.72 248.384 277.872 247.808 278.176 247.28C278.496 246.752 278.92 246.336 279.448 246.032C279.976 245.712 280.552 245.552 281.176 245.552C281.8 245.552 282.376 245.712 282.904 246.032C283.432 246.336 283.848 246.752 284.152 247.28C284.472 247.808 284.632 248.384 284.632 249.008C284.632 249.632 284.472 250.208 284.152 250.736C283.848 251.264 283.432 251.688 282.904 252.008C282.376 252.312 281.8 252.464 281.176 252.464ZM282.52 249.008C282.52 248.656 282.392 248.344 282.136 248.072C281.896 247.8 281.576 247.664 281.176 247.664C280.792 247.664 280.472 247.8 280.215 248.072C279.975 248.344 279.855 248.656 279.855 249.008C279.855 249.36 279.975 249.672 280.215 249.944C280.472 250.216 280.792 250.352 281.176 250.352C281.576 250.352 281.896 250.216 282.136 249.944C282.392 249.672 282.52 249.36 282.52 249.008ZM288.64 263.264C288.016 263.264 287.44 263.112 286.912 262.808C286.384 262.488 285.96 262.064 285.64 261.536C285.336 261.008 285.184 260.432 285.184 259.808C285.184 259.184 285.336 258.608 285.64 258.08C285.96 257.552 286.384 257.136 286.912 256.832C287.44 256.512 288.016 256.352 288.64 256.352C289.264 256.352 289.84 256.512 290.368 256.832C290.896 257.136 291.312 257.552 291.616 258.08C291.936 258.608 292.096 259.184 292.096 259.808C292.096 260.432 291.936 261.008 291.616 261.536C291.312 262.064 290.896 262.488 290.368 262.808C289.84 263.112 289.264 263.264 288.64 263.264ZM289.96 259.808C289.96 259.456 289.84 259.152 289.6 258.896C289.36 258.624 289.04 258.488 288.64 258.488C288.24 258.488 287.92 258.624 287.68 258.896C287.44 259.152 287.32 259.456 287.32 259.808C287.32 260.16 287.44 260.472 287.68 260.744C287.92 261 288.24 261.128 288.64 261.128C289.04 261.128 289.36 261 289.6 260.744C289.84 260.472 289.96 260.16 289.96 259.808Z" fill="#FFFF00"/>
<circle cx="51" cy="254" r="10" fill="#FFFF00" fill-opacity="0.32"/>
<path d="M48.6252 263.714C49.9985 264.05 51.4275 264.09 52.8178 263.833C54.2081 263.576 55.528 263.027 56.6906 262.223C57.8532 261.418 58.832 260.376 59.5624 259.166C60.2927 257.955 60.7581 256.604 60.9277 255.2C61.0974 253.796 60.9675 252.373 60.5466 251.023C60.1257 249.673 59.4234 248.428 58.486 247.37C57.5486 246.311 56.3974 245.464 55.1084 244.883C53.8194 244.302 52.4218 244.001 51.008 244L51 254L48.6252 263.714Z" fill="#FFFF00"/>
<circle cx="51" cy="400" r="10" fill="#FFFF00" fill-opacity="0.32"/>
<path d="M48.6252 409.714C49.9985 410.05 51.4275 410.09 52.8178 409.833C54.2081 409.576 55.528 409.027 56.6906 408.223C57.8532 407.418 58.832 406.376 59.5624 405.166C60.2927 403.955 60.7581 402.604 60.9277 401.2C61.0974 399.796 60.9675 398.373 60.5466 397.023C60.1257 395.673 59.4234 394.428 58.486 393.37C57.5486 392.311 56.3974 391.464 55.1084 390.883C53.8194 390.302 52.4218 390.001 51.008 390L51 400L48.6252 409.714Z" fill="#FFFF00"/>
<path d="M79.84 324.3L76.58 334H75.22L72 324.3V334H70.56V320H72L75.9 331.38L79.84 320H81.28V334H79.84V324.3ZM90.2267 329.48H86.0667L84.7467 334H83.1867L87.3067 320H88.9667L93.2267 334H91.6067L90.2267 329.48ZM86.4467 328H89.8667L88.1267 322.32L86.4467 328ZM100.634 329.36C100.394 329.387 100.18 329.4 99.9936 329.4H96.4336V334H94.9936V320H99.8536C101.134 320 102.087 320.407 102.714 321.22C103.354 322.033 103.674 323.1 103.674 324.42C103.674 325.42 103.567 326.307 103.354 327.08C103.154 327.84 102.694 328.447 101.974 328.9L103.694 334H102.214L100.634 329.36ZM99.8136 328C100.534 328 101.067 327.813 101.414 327.44C101.76 327.053 101.974 326.62 102.054 326.14C102.147 325.647 102.194 325.093 102.194 324.48C102.194 322.427 101.34 321.4 99.6336 321.4H96.4336V328H99.8136ZM108.503 327.5L107.803 328.62V334H106.303V319.98H107.803V326.1L111.903 319.98H113.603L109.403 326.18L114.563 334H112.803L108.503 327.5ZM116.126 320H122.806V321.38H117.566V325.74H121.066L120.606 327.14H117.566V332.7H122.766V334H116.126V320ZM127.103 321.36H123.863V320H131.903V321.36H128.543V334H127.103V321.36ZM134.51 321.36L133.19 321.32V320H135.95V334H134.51V321.36ZM140.496 322.8V334H139.056V320H140.496L147.436 331.18V320H148.896V334H147.436L140.496 322.8ZM158.408 333.38C157.768 333.927 156.915 334.2 155.848 334.2C155.101 334.2 154.408 334.06 153.768 333.78C153.128 333.5 152.608 333.06 152.208 332.46C151.821 331.86 151.628 331.113 151.628 330.22V323.94C151.628 323.007 151.775 322.26 152.068 321.7C152.375 321.127 152.808 320.667 153.368 320.32C153.955 319.987 154.675 319.82 155.528 319.82C156.568 319.82 157.508 320.04 158.348 320.48L157.928 321.6C157.208 321.333 156.521 321.2 155.868 321.2C154.001 321.2 153.068 322.053 153.068 323.76V330.26C153.068 331.073 153.321 331.7 153.828 332.14C154.335 332.567 155.001 332.78 155.828 332.78C156.601 332.78 157.228 332.56 157.708 332.12C158.201 331.68 158.448 331.067 158.448 330.28V329.4H157.188L156.708 328H159.848V334H158.648L158.408 333.38Z" fill="white"/>
<path d="M260.939 322.152C260.731 322.28 260.475 322.392 260.171 322.488C259.867 322.584 259.587 322.656 259.331 322.704C259.091 322.736 258.939 322.752 258.875 322.752L258.275 320.808C258.275 320.824 258.435 320.792 258.755 320.712C259.075 320.616 259.435 320.456 259.835 320.232C260.235 319.992 260.603 319.648 260.939 319.2H263.123V336H260.915L260.939 322.152ZM275.108 331.56C275.108 333.176 274.612 334.368 273.62 335.136C272.644 335.888 271.468 336.264 270.092 336.264C269.228 336.264 268.412 336.112 267.644 335.808C266.876 335.488 266.244 334.976 265.748 334.272C265.268 333.568 265.028 332.664 265.028 331.56V323.832C265.028 322.184 265.476 320.936 266.372 320.088C267.284 319.24 268.532 318.816 270.116 318.816C271.7 318.816 272.924 319.264 273.788 320.16C274.668 321.056 275.108 322.288 275.108 323.856V331.56ZM272.924 324.336C272.924 323.28 272.7 322.48 272.252 321.936C271.82 321.392 271.092 321.12 270.068 321.12C269.044 321.12 268.308 321.392 267.86 321.936C267.428 322.464 267.212 323.256 267.212 324.312V331.248C267.212 332.144 267.46 332.84 267.956 333.336C268.468 333.832 269.172 334.08 270.068 334.08C270.932 334.08 271.62 333.832 272.132 333.336C272.66 332.824 272.924 332.12 272.924 331.224V324.336ZM290.56 318.168L292.264 319.536L279.088 336L277.504 334.584L290.56 318.168ZM281.176 325.464C280.552 325.464 279.976 325.312 279.448 325.008C278.92 324.688 278.496 324.264 278.176 323.736C277.872 323.208 277.72 322.632 277.72 322.008C277.72 321.384 277.872 320.808 278.176 320.28C278.496 319.752 278.92 319.336 279.448 319.032C279.976 318.712 280.552 318.552 281.176 318.552C281.8 318.552 282.376 318.712 282.904 319.032C283.432 319.336 283.848 319.752 284.152 320.28C284.472 320.808 284.632 321.384 284.632 322.008C284.632 322.632 284.472 323.208 284.152 323.736C283.848 324.264 283.432 324.688 282.904 325.008C282.376 325.312 281.8 325.464 281.176 325.464ZM282.52 322.008C282.52 321.656 282.392 321.344 282.136 321.072C281.896 320.8 281.576 320.664 281.176 320.664C280.792 320.664 280.472 320.8 280.215 321.072C279.975 321.344 279.855 321.656 279.855 322.008C279.855 322.36 279.975 322.672 280.215 322.944C280.472 323.216 280.792 323.352 281.176 323.352C281.576 323.352 281.896 323.216 282.136 322.944C282.392 322.672 282.52 322.36 282.52 322.008ZM288.64 336.264C288.016 336.264 287.44 336.112 286.912 335.808C286.384 335.488 285.96 335.064 285.64 334.536C285.336 334.008 285.184 333.432 285.184 332.808C285.184 332.184 285.336 331.608 285.64 331.08C285.96 330.552 286.384 330.136 286.912 329.832C287.44 329.512 288.016 329.352 288.64 329.352C289.264 329.352 289.84 329.512 290.368 329.832C290.896 330.136 291.312 330.552 291.616 331.08C291.936 331.608 292.096 332.184 292.096 332.808C292.096 333.432 291.936 334.008 291.616 334.536C291.312 335.064 290.896 335.488 290.368 335.808C289.84 336.112 289.264 336.264 288.64 336.264ZM289.96 332.808C289.96 332.456 289.84 332.152 289.6 331.896C289.36 331.624 289.04 331.488 288.64 331.488C288.24 331.488 287.92 331.624 287.68 331.896C287.44 332.152 287.32 332.456 287.32 332.808C287.32 333.16 287.44 333.472 287.68 333.744C287.92 334 288.24 334.128 288.64 334.128C289.04 334.128 289.36 334 289.6 333.744C289.84 333.472 289.96 333.16 289.96 332.808Z" fill="#FFFF00"/>
<circle cx="51" cy="327" r="10" fill="#FFFF00" fill-opacity="0.32"/>
<path d="M41.6223 323.527C40.8831 325.524 40.8002 327.704 41.3856 329.75C41.971 331.797 43.1942 333.603 44.8773 334.906C46.5603 336.21 48.6153 336.942 50.7433 336.997C52.8713 337.051 54.9611 336.426 56.7089 335.21C58.4566 333.995 59.7709 332.254 60.4606 330.24C61.1503 328.226 61.1793 326.045 60.5435 324.013C59.9078 321.982 58.6403 320.206 56.9256 318.945C55.2109 317.683 53.1384 317.002 51.0097 317L51 327L41.6223 323.527Z" fill="#FFFF00"/>
<line x1="320.5" y1="366.5" x2="41.5" y2="366.5" stroke="url(#paint5_linear_1391_4409)" stroke-linecap="round"/>
<path d="M71.6 394.36L70.28 394.32V393H73.04V407H71.6V394.36ZM77.5859 395.8V407H76.1459V393H77.5859L84.5259 404.18V393H85.9859V407H84.5259L77.5859 395.8ZM96.1338 406.54C94.9471 406.98 93.8404 407.2 92.8138 407.2C91.6538 407.2 90.7138 406.893 89.9938 406.28C89.2738 405.667 88.9137 404.687 88.9137 403.34V396.92C88.9137 395.907 89.0538 395.14 89.3338 394.62C89.6271 394.1 90.0671 393.66 90.6538 393.3C91.2404 392.967 91.9604 392.8 92.8138 392.8C93.8538 392.8 94.7938 393.02 95.6338 393.46L95.2138 394.6C94.4938 394.333 93.7938 394.2 93.1138 394.2C92.3804 394.2 91.7338 394.387 91.1738 394.76C90.6271 395.133 90.3538 395.793 90.3538 396.74V403.3C90.3538 404.14 90.5871 404.767 91.0538 405.18C91.5204 405.593 92.1804 405.8 93.0338 405.8C93.8604 405.8 94.8004 405.62 95.8538 405.26L96.1338 406.54ZM97.8256 393H104.506V394.38H99.2656V398.74H102.766L102.306 400.14H99.2656V405.7H104.466V407H97.8256V393ZM108.563 395.8V407H107.123V393H108.563L115.503 404.18V393H116.963V407H115.503L108.563 395.8ZM121.81 394.36H118.57V393H126.61V394.36H123.25V407H121.81V394.36ZM129.217 394.36L127.897 394.32V393H130.657V407H129.217V394.36ZM133.763 393H135.343L138.543 404.74L141.723 393H143.323L139.483 407H137.623L133.763 393ZM145.58 393H152.26V394.38H147.02V398.74H150.52L150.06 400.14H147.02V405.7H152.22V407H145.58V393ZM155.556 403.34C155.596 403.767 155.75 404.173 156.016 404.56C156.296 404.933 156.67 405.24 157.136 405.48C157.603 405.707 158.143 405.82 158.756 405.82C159.703 405.82 160.476 405.607 161.076 405.18C161.69 404.74 161.996 404.107 161.996 403.28C161.996 402.693 161.836 402.207 161.516 401.82C161.196 401.42 160.803 401.107 160.336 400.88C159.87 400.64 159.23 400.367 158.416 400.06C157.55 399.74 156.85 399.447 156.316 399.18C155.783 398.9 155.33 398.527 154.956 398.06C154.596 397.58 154.416 396.973 154.416 396.24C154.416 395.653 154.583 395.1 154.916 394.58C155.25 394.047 155.75 393.62 156.416 393.3C157.096 392.967 157.93 392.8 158.916 392.8C159.57 392.8 160.11 392.847 160.536 392.94C160.963 393.033 161.396 393.187 161.836 393.4L161.396 394.76C160.57 394.4 159.756 394.22 158.956 394.22C158.01 394.22 157.263 394.413 156.716 394.8C156.183 395.173 155.923 395.687 155.936 396.34C155.936 396.74 156.076 397.087 156.356 397.38C156.636 397.66 156.983 397.9 157.396 398.1C157.81 398.3 158.37 398.527 159.076 398.78C160.023 399.127 160.796 399.46 161.396 399.78C161.996 400.087 162.503 400.52 162.916 401.08C163.343 401.627 163.556 402.313 163.556 403.14C163.556 404.367 163.163 405.353 162.376 406.1C161.603 406.847 160.403 407.22 158.776 407.22C157.79 407.22 156.943 407.04 156.236 406.68C155.543 406.307 155.01 405.833 154.636 405.26C154.276 404.673 154.083 404.067 154.056 403.44L155.556 403.34ZM171.654 393H178.334V394.4H173.094V398.74H176.334L175.794 400.14H173.094V407H171.654V393ZM188.939 392.98V403.28C188.939 404.627 188.526 405.607 187.699 406.22C186.886 406.833 185.899 407.14 184.739 407.14C183.579 407.14 182.586 406.833 181.759 406.22C180.932 405.607 180.519 404.627 180.519 403.28V392.98H181.959V403.12C181.959 403.947 182.206 404.6 182.699 405.08C183.206 405.56 183.879 405.8 184.719 405.8C185.572 405.8 186.246 405.56 186.739 405.08C187.246 404.6 187.499 403.947 187.499 403.12V392.98H188.939ZM193.367 395.8V407H191.927V393H193.367L200.307 404.18V393H201.767V407H200.307L193.367 395.8ZM204.935 392.98H208.695C210.202 392.98 211.348 393.393 212.135 394.22C212.935 395.047 213.335 396.147 213.335 397.52V403C213.335 405.667 211.922 407 209.095 407H204.935V392.98ZM211.895 397.32C211.895 396.32 211.602 395.58 211.015 395.1C210.442 394.607 209.735 394.36 208.895 394.36H206.375V405.7H208.775C209.668 405.7 210.408 405.533 210.995 405.2C211.595 404.867 211.895 404.2 211.895 403.2V397.32Z" fill="white"/>
<path d="M257.338 406.984L263.05 398.488C263.594 397.672 263.866 396.904 263.866 396.184C263.866 395.56 263.658 395.056 263.242 394.672C262.826 394.288 262.314 394.096 261.706 394.096C261.21 394.096 260.77 394.264 260.386 394.6C260.002 394.936 259.762 395.344 259.666 395.824L257.698 394.84C257.986 394.008 258.498 393.32 259.234 392.776C259.97 392.232 260.842 391.96 261.85 391.96C262.666 391.96 263.394 392.136 264.034 392.488C264.674 392.84 265.17 393.32 265.522 393.928C265.874 394.536 266.05 395.224 266.05 395.992C266.05 397.096 265.698 398.184 264.994 399.256L259.882 406.984H266.122V409H257.338V406.984ZM268.387 405.52C268.771 406.048 269.179 406.448 269.611 406.72C270.059 406.992 270.587 407.128 271.195 407.128C272.123 407.128 272.843 406.84 273.355 406.264C273.867 405.688 274.123 404.992 274.123 404.176C274.123 403.28 273.787 402.56 273.115 402.016C272.459 401.472 271.603 401.2 270.547 401.2H267.619L268.579 392.2H274.963V394.384H270.595L270.115 399.088H271.195C272.123 399.088 272.979 399.32 273.763 399.784C274.547 400.232 275.163 400.848 275.611 401.632C276.075 402.4 276.307 403.248 276.307 404.176C276.307 405.104 276.075 405.96 275.611 406.744C275.163 407.528 274.547 408.152 273.763 408.616C272.979 409.064 272.123 409.288 271.195 409.288C270.331 409.288 269.523 409.088 268.771 408.688C268.019 408.272 267.411 407.712 266.947 407.008L268.387 405.52ZM290.56 391.168L292.264 392.536L279.088 409L277.504 407.584L290.56 391.168ZM281.176 398.464C280.552 398.464 279.976 398.312 279.448 398.008C278.92 397.688 278.496 397.264 278.176 396.736C277.872 396.208 277.72 395.632 277.72 395.008C277.72 394.384 277.872 393.808 278.176 393.28C278.496 392.752 278.92 392.336 279.448 392.032C279.976 391.712 280.552 391.552 281.176 391.552C281.8 391.552 282.376 391.712 282.904 392.032C283.432 392.336 283.848 392.752 284.152 393.28C284.472 393.808 284.632 394.384 284.632 395.008C284.632 395.632 284.472 396.208 284.152 396.736C283.848 397.264 283.432 397.688 282.904 398.008C282.376 398.312 281.8 398.464 281.176 398.464ZM282.52 395.008C282.52 394.656 282.392 394.344 282.136 394.072C281.896 393.8 281.576 393.664 281.176 393.664C280.792 393.664 280.472 393.8 280.215 394.072C279.975 394.344 279.855 394.656 279.855 395.008C279.855 395.36 279.975 395.672 280.215 395.944C280.472 396.216 280.792 396.352 281.176 396.352C281.576 396.352 281.896 396.216 282.136 395.944C282.392 395.672 282.52 395.36 282.52 395.008ZM288.64 409.264C288.016 409.264 287.44 409.112 286.912 408.808C286.384 408.488 285.96 408.064 285.64 407.536C285.336 407.008 285.184 406.432 285.184 405.808C285.184 405.184 285.336 404.608 285.64 404.08C285.96 403.552 286.384 403.136 286.912 402.832C287.44 402.512 288.016 402.352 288.64 402.352C289.264 402.352 289.84 402.512 290.368 402.832C290.896 403.136 291.312 403.552 291.616 404.08C291.936 404.608 292.096 405.184 292.096 405.808C292.096 406.432 291.936 407.008 291.616 407.536C291.312 408.064 290.896 408.488 290.368 408.808C289.84 409.112 289.264 409.264 288.64 409.264ZM289.96 405.808C289.96 405.456 289.84 405.152 289.6 404.896C289.36 404.624 289.04 404.488 288.64 404.488C288.24 404.488 287.92 404.624 287.68 404.896C287.44 405.152 287.32 405.456 287.32 405.808C287.32 406.16 287.44 406.472 287.68 406.744C287.92 407 288.24 407.128 288.64 407.128C289.04 407.128 289.36 407 289.6 406.744C289.84 406.472 289.96 406.16 289.96 405.808Z" fill="#FFFF00"/>
<circle cx="51" cy="400" r="10" fill="#FFFF00" fill-opacity="0.32"/>
<path d="M41.6223 396.527C40.8831 398.524 40.8002 400.704 41.3856 402.75C41.971 404.797 43.1942 406.603 44.8773 407.906C46.5603 409.21 48.6153 409.942 50.7433 409.997C52.8712 410.051 54.9611 409.426 56.7089 408.21C58.4566 406.995 59.7709 405.254 60.4606 403.24C61.1503 401.226 61.1793 399.045 60.5435 397.013C59.9078 394.982 58.6403 393.206 56.9256 391.945C55.2109 390.683 53.1384 390.002 51.0097 390L51 400L41.6223 396.527Z" fill="#FFFF00"/>
<line x1="320.5" y1="439.5" x2="41.5" y2="439.5" stroke="url(#paint6_linear_1391_4409)" stroke-linecap="round"/>
<path d="M72.24 467.36H69V466H77.04V467.36H73.68V480H72.24V467.36ZM78.6069 466H85.2869V467.38H80.0469V471.74H83.5469L83.0869 473.14H80.0469V478.7H85.2469V480H78.6069V466ZM93.6838 475.48H89.5238L88.2038 480H86.6438L90.7638 466H92.4238L96.6838 480H95.0638L93.6838 475.48ZM89.9038 474H93.3238L91.5838 468.32L89.9038 474ZM107.731 470.3L104.471 480H103.111L99.8906 470.3V480H98.4506V466H99.8906L103.791 477.38L107.731 466H109.171V480H107.731V470.3Z" fill="white"/>
<path d="M272.445 474.2H264.885L269.517 465.2H271.749L268.461 472.088H272.445V465.2H274.629V472.088H276.309L275.853 474.2H274.629V482H272.445V474.2ZM290.56 464.168L292.264 465.536L279.088 482L277.504 480.584L290.56 464.168ZM281.176 471.464C280.552 471.464 279.976 471.312 279.448 471.008C278.92 470.688 278.496 470.264 278.176 469.736C277.872 469.208 277.72 468.632 277.72 468.008C277.72 467.384 277.872 466.808 278.176 466.28C278.496 465.752 278.92 465.336 279.448 465.032C279.976 464.712 280.552 464.552 281.176 464.552C281.8 464.552 282.376 464.712 282.904 465.032C283.432 465.336 283.848 465.752 284.152 466.28C284.472 466.808 284.632 467.384 284.632 468.008C284.632 468.632 284.472 469.208 284.152 469.736C283.848 470.264 283.432 470.688 282.904 471.008C282.376 471.312 281.8 471.464 281.176 471.464ZM282.52 468.008C282.52 467.656 282.392 467.344 282.136 467.072C281.896 466.8 281.576 466.664 281.176 466.664C280.792 466.664 280.472 466.8 280.215 467.072C279.975 467.344 279.855 467.656 279.855 468.008C279.855 468.36 279.975 468.672 280.215 468.944C280.472 469.216 280.792 469.352 281.176 469.352C281.576 469.352 281.896 469.216 282.136 468.944C282.392 468.672 282.52 468.36 282.52 468.008ZM288.64 482.264C288.016 482.264 287.44 482.112 286.912 481.808C286.384 481.488 285.96 481.064 285.64 480.536C285.336 480.008 285.184 479.432 285.184 478.808C285.184 478.184 285.336 477.608 285.64 477.08C285.96 476.552 286.384 476.136 286.912 475.832C287.44 475.512 288.016 475.352 288.64 475.352C289.264 475.352 289.84 475.512 290.368 475.832C290.896 476.136 291.312 476.552 291.616 477.08C291.936 477.608 292.096 478.184 292.096 478.808C292.096 479.432 291.936 480.008 291.616 480.536C291.312 481.064 290.896 481.488 290.368 481.808C289.84 482.112 289.264 482.264 288.64 482.264ZM289.96 478.808C289.96 478.456 289.84 478.152 289.6 477.896C289.36 477.624 289.04 477.488 288.64 477.488C288.24 477.488 287.92 477.624 287.68 477.896C287.44 478.152 287.32 478.456 287.32 478.808C287.32 479.16 287.44 479.472 287.68 479.744C287.92 480 288.24 480.128 288.64 480.128C289.04 480.128 289.36 480 289.6 479.744C289.84 479.472 289.96 479.16 289.96 478.808Z" fill="#FFFF00"/>
<circle cx="51" cy="473" r="10" fill="#FFFF00" fill-opacity="0.32"/>
<path d="M41.6223 469.527C40.8831 471.524 40.8002 473.704 41.3856 475.75C41.971 477.797 43.1942 479.603 44.8773 480.906C46.5603 482.21 48.6153 482.942 50.7433 482.997C52.8712 483.051 54.9611 482.426 56.7089 481.21C58.4566 479.995 59.7709 478.254 60.4606 476.24C61.1503 474.226 61.1793 472.045 60.5435 470.013C59.9078 467.982 58.6403 466.206 56.9256 464.945C55.2109 463.683 53.1384 463.002 51.0097 463L51 473L41.6223 469.527Z" fill="#FFFF00"/>
<line x1="320.5" y1="512.5" x2="41.5" y2="512.5" stroke="url(#paint7_linear_1391_4409)" stroke-linecap="round"/>
<path d="M70.56 538.98H74.32C75.8267 538.98 76.9733 539.393 77.76 540.22C78.56 541.047 78.96 542.147 78.96 543.52V549C78.96 551.667 77.5467 553 74.72 553H70.56V538.98ZM77.52 543.32C77.52 542.32 77.2267 541.58 76.64 541.1C76.0667 540.607 75.36 540.36 74.52 540.36H72V551.7H74.4C75.2933 551.7 76.0333 551.533 76.62 551.2C77.22 550.867 77.52 550.2 77.52 549.2V543.32ZM81.81 539H88.49V540.38H83.25V544.74H86.75L86.29 546.14H83.25V551.7H88.45V553H81.81V539ZM91.1069 539H92.6869L95.8869 550.74L99.0669 539H100.667L96.8269 553H94.9669L91.1069 539ZM102.923 539H109.603V540.38H104.363V544.74H107.863L107.403 546.14H104.363V551.7H109.563V553H102.923V539ZM112.22 539H113.66V551.7H119.44V553H112.22V539ZM129.129 549.3C129.129 550.647 128.715 551.64 127.889 552.28C127.075 552.907 126.095 553.22 124.949 553.22C124.229 553.22 123.549 553.093 122.909 552.84C122.269 552.573 121.742 552.147 121.329 551.56C120.929 550.973 120.729 550.22 120.729 549.3V542.86C120.729 541.487 121.102 540.447 121.849 539.74C122.609 539.033 123.649 538.68 124.969 538.68C126.289 538.68 127.309 539.053 128.029 539.8C128.762 540.547 129.129 541.573 129.129 542.88V549.3ZM127.689 542.96C127.689 542.04 127.449 541.34 126.969 540.86C126.502 540.38 125.822 540.14 124.929 540.14C124.035 540.14 123.349 540.38 122.869 540.86C122.402 541.327 122.169 542.027 122.169 542.96V549.18C122.169 550.033 122.422 550.687 122.929 551.14C123.435 551.58 124.102 551.8 124.929 551.8C125.755 551.8 126.422 551.58 126.929 551.14C127.435 550.687 127.689 550.02 127.689 549.14V542.96ZM131.79 539H136.61C137.917 539 138.884 539.407 139.51 540.22C140.15 541.033 140.47 542.1 140.47 543.42C140.47 544.26 140.397 545.033 140.25 545.74C140.104 546.433 139.757 547.053 139.21 547.6C138.664 548.133 137.844 548.4 136.75 548.4H133.23V553H131.79V539ZM136.57 547C137.304 547 137.85 546.82 138.21 546.46C138.584 546.087 138.81 545.66 138.89 545.18C138.984 544.7 139.03 544.16 139.03 543.56C139.03 542.453 138.81 541.653 138.37 541.16C137.93 540.653 137.304 540.4 136.49 540.4H133.23V547H136.57ZM152.008 543.3L148.748 553H147.388L144.168 543.3V553H142.728V539H144.168L148.068 550.38L152.008 539H153.448V553H152.008V543.3ZM156.615 539H163.295V540.38H158.055V544.74H161.555L161.095 546.14H158.055V551.7H163.255V553H156.615V539ZM167.352 541.8V553H165.912V539H167.352L174.292 550.18V539H175.752V553H174.292L167.352 541.8ZM180.599 540.36H177.359V539H185.399V540.36H182.039V553H180.599V540.36Z" fill="white"/>
<path d="M263.119 541.152C262.911 541.28 262.655 541.392 262.351 541.488C262.047 541.584 261.767 541.656 261.511 541.704C261.271 541.736 261.119 541.752 261.055 541.752L260.455 539.808C260.455 539.824 260.615 539.792 260.935 539.712C261.255 539.616 261.615 539.456 262.015 539.232C262.415 538.992 262.783 538.648 263.119 538.2H265.303V555H263.095L263.119 541.152ZM266.103 543.936C266.103 543.056 266.287 542.184 266.655 541.32C267.039 540.44 267.663 539.704 268.527 539.112C269.407 538.504 270.551 538.2 271.959 538.2H272.799V540.384H272.055C270.967 540.384 270.063 540.672 269.343 541.248C268.639 541.824 268.287 542.848 268.287 544.32V546.168C268.575 545.864 268.999 545.608 269.559 545.4C270.119 545.192 270.663 545.088 271.191 545.088C272.119 545.088 272.975 545.32 273.759 545.784C274.543 546.232 275.159 546.848 275.607 547.632C276.071 548.4 276.303 549.248 276.303 550.176C276.303 551.104 276.071 551.96 275.607 552.744C275.159 553.528 274.543 554.152 273.759 554.616C272.975 555.064 272.119 555.288 271.191 555.288C270.263 555.288 269.407 555.064 268.623 554.616C267.855 554.152 267.239 553.528 266.775 552.744C266.327 551.96 266.103 551.104 266.103 550.176V543.936ZM268.263 550.176C268.263 550.992 268.543 551.688 269.103 552.264C269.679 552.84 270.375 553.128 271.191 553.128C272.007 553.128 272.695 552.84 273.255 552.264C273.831 551.688 274.119 550.992 274.119 550.176C274.119 549.36 273.831 548.672 273.255 548.112C272.695 547.552 272.007 547.272 271.191 547.272C270.391 547.272 269.703 547.544 269.127 548.088C268.567 548.616 268.279 549.272 268.263 550.056V550.176ZM290.56 537.168L292.264 538.536L279.088 555L277.504 553.584L290.56 537.168ZM281.176 544.464C280.552 544.464 279.976 544.312 279.448 544.008C278.92 543.688 278.496 543.264 278.176 542.736C277.872 542.208 277.72 541.632 277.72 541.008C277.72 540.384 277.872 539.808 278.176 539.28C278.496 538.752 278.92 538.336 279.448 538.032C279.976 537.712 280.552 537.552 281.176 537.552C281.8 537.552 282.376 537.712 282.904 538.032C283.432 538.336 283.848 538.752 284.152 539.28C284.472 539.808 284.632 540.384 284.632 541.008C284.632 541.632 284.472 542.208 284.152 542.736C283.848 543.264 283.432 543.688 282.904 544.008C282.376 544.312 281.8 544.464 281.176 544.464ZM282.52 541.008C282.52 540.656 282.392 540.344 282.136 540.072C281.896 539.8 281.576 539.664 281.176 539.664C280.792 539.664 280.472 539.8 280.215 540.072C279.975 540.344 279.855 540.656 279.855 541.008C279.855 541.36 279.975 541.672 280.215 541.944C280.472 542.216 280.792 542.352 281.176 542.352C281.576 542.352 281.896 542.216 282.136 541.944C282.392 541.672 282.52 541.36 282.52 541.008ZM288.64 555.264C288.016 555.264 287.44 555.112 286.912 554.808C286.384 554.488 285.96 554.064 285.64 553.536C285.336 553.008 285.184 552.432 285.184 551.808C285.184 551.184 285.336 550.608 285.64 550.08C285.96 549.552 286.384 549.136 286.912 548.832C287.44 548.512 288.016 548.352 288.64 548.352C289.264 548.352 289.84 548.512 290.368 548.832C290.896 549.136 291.312 549.552 291.616 550.08C291.936 550.608 292.096 551.184 292.096 551.808C292.096 552.432 291.936 553.008 291.616 553.536C291.312 554.064 290.896 554.488 290.368 554.808C289.84 555.112 289.264 555.264 288.64 555.264ZM289.96 551.808C289.96 551.456 289.84 551.152 289.6 550.896C289.36 550.624 289.04 550.488 288.64 550.488C288.24 550.488 287.92 550.624 287.68 550.896C287.44 551.152 287.32 551.456 287.32 551.808C287.32 552.16 287.44 552.472 287.68 552.744C287.92 553 288.24 553.128 288.64 553.128C289.04 553.128 289.36 553 289.6 552.744C289.84 552.472 289.96 552.16 289.96 551.808Z" fill="#FFFF00"/>
<circle cx="51" cy="546" r="10" fill="#FFFF00" fill-opacity="0.32"/>
<path d="M41.6223 542.527C40.8831 544.524 40.8002 546.704 41.3856 548.75C41.971 550.797 43.1942 552.603 44.8773 553.906C46.5603 555.21 48.6153 555.942 50.7433 555.997C52.8712 556.051 54.9611 555.426 56.7089 554.21C58.4566 552.995 59.7709 551.254 60.4606 549.24C61.1503 547.226 61.1793 545.045 60.5435 543.013C59.9078 540.982 58.6403 539.206 56.9256 537.945C55.2109 536.683 53.1384 536.002 51.0097 536L51 546L41.6223 542.527Z" fill="#FFFF00"/>
<line x1="320.5" y1="585.5" x2="41.5" y2="585.5" stroke="url(#paint8_linear_1391_4409)" stroke-linecap="round"/>
<circle cx="51" cy="546" r="10" fill="#FFFF00" fill-opacity="0.32"/>
<circle cx="51" cy="546" r="10" fill="#FFFF00"/>
<path d="M285.4 34V37.312C282.584 37.6691 279.967 38.9522 277.959 40.9593C275.952 42.9665 274.669 45.584 274.312 48.4H271V51.6H274.312C274.669 54.416 275.952 57.0335 277.959 59.0407C279.967 61.0478 282.584 62.3309 285.4 62.688V66H288.6V62.688C291.416 62.3309 294.033 61.0478 296.041 59.0407C298.048 57.0335 299.331 54.416 299.688 51.6H303V48.4H299.688C299.331 45.584 298.048 42.9665 296.041 40.9593C294.033 38.9522 291.416 37.6691 288.6 37.312V34M285.4 40.528V43.6H288.6V40.544C292.6 41.2 295.8 44.4 296.472 48.4H293.4V51.6H296.456C295.8 55.6 292.6 58.8 288.6 59.472V56.4H285.4V59.456C281.4 58.8 278.2 55.6 277.528 51.6H280.6V48.4H277.544C278.2 44.4 281.4 41.2 285.4 40.528ZM287 48.4C286.576 48.4 286.169 48.5686 285.869 48.8686C285.569 49.1687 285.4 49.5757 285.4 50C285.4 50.4243 285.569 50.8313 285.869 51.1314C286.169 51.4314 286.576 51.6 287 51.6C287.424 51.6 287.831 51.4314 288.131 51.1314C288.431 50.8313 288.6 50.4243 288.6 50C288.6 49.5757 288.431 49.1687 288.131 48.8686C287.831 48.5686 287.424 48.4 287 48.4Z" fill="#F01E31"/>
<defs>
<filter id="filter0_b_1391_4409" x="-11.8223" y="-11.8219" width="381.418" height="653.805" filterUnits="userSpaceOnUse" color-interpolation-filters="sRGB">
<feFlood flood-opacity="0" result="BackgroundImageFix"/>
<feGaussianBlur in="BackgroundImageFix" stdDeviation="6"/>
<feComposite in2="SourceAlpha" operator="in" result="effect1_backgroundBlur_1391_4409"/>
<feBlend mode="normal" in="SourceGraphic" in2="effect1_backgroundBlur_1391_4409" result="shape"/>
</filter>
<filter id="filter1_b_1391_4409" x="-29.1094" y="-20.9144" width="416.672" height="675.351" filterUnits="userSpaceOnUse" color-interpolation-filters="sRGB">
<feFlood flood-opacity="0" result="BackgroundImageFix"/>
<feGaussianBlur in="BackgroundImageFix" stdDeviation="16"/>
<feComposite in2="SourceAlpha" operator="in" result="effect1_backgroundBlur_1391_4409"/>
<feBlend mode="normal" in="SourceGraphic" in2="effect1_backgroundBlur_1391_4409" result="shape"/>
</filter>
<linearGradient id="paint0_linear_1391_4409" x1="303.431" y1="631" x2="282.184" y2="631" gradientUnits="userSpaceOnUse">
<stop stop-color="#FFBF34" stop-opacity="0"/>
<stop offset="0.518905" stop-color="#FFBF34"/>
<stop offset="1" stop-color="#FFDD34" stop-opacity="0"/>
</linearGradient>
<linearGradient id="paint1_linear_1391_4409" x1="356.549" y1="75.5182" x2="356.549" y2="154.393" gradientUnits="userSpaceOnUse">
<stop stop-color="#FFBF34" stop-opacity="0"/>
<stop offset="0.518905" stop-color="#FFBF34"/>
<stop offset="1" stop-color="#FFDD34" stop-opacity="0"/>
</linearGradient>
<linearGradient id="paint2_linear_1391_4409" x1="321" y1="146.5" x2="41" y2="146.5" gradientUnits="userSpaceOnUse">
<stop stop-color="white" stop-opacity="0"/>
<stop offset="1" stop-color="#FFFF00"/>
</linearGradient>
<linearGradient id="paint3_linear_1391_4409" x1="321" y1="219.5" x2="41" y2="219.5" gradientUnits="userSpaceOnUse">
<stop stop-color="white" stop-opacity="0"/>
<stop offset="1" stop-color="#FFFF00"/>
</linearGradient>
<linearGradient id="paint4_linear_1391_4409" x1="321" y1="292.5" x2="41" y2="292.5" gradientUnits="userSpaceOnUse">
<stop stop-color="white" stop-opacity="0"/>
<stop offset="1" stop-color="#FFFF00"/>
</linearGradient>
<linearGradient id="paint5_linear_1391_4409" x1="321" y1="365.5" x2="41" y2="365.5" gradientUnits="userSpaceOnUse">
<stop stop-color="white" stop-opacity="0"/>
<stop offset="1" stop-color="#FFFF00"/>
</linearGradient>
<linearGradient id="paint6_linear_1391_4409" x1="321" y1="438.5" x2="41" y2="438.5" gradientUnits="userSpaceOnUse">
<stop stop-color="white" stop-opacity="0"/>
<stop offset="1" stop-color="#FFFF00"/>
</linearGradient>
<linearGradient id="paint7_linear_1391_4409" x1="321" y1="511.5" x2="41" y2="511.5" gradientUnits="userSpaceOnUse">
<stop stop-color="white" stop-opacity="0"/>
<stop offset="1" stop-color="#FFFF00"/>
</linearGradient>
<linearGradient id="paint8_linear_1391_4409" x1="321" y1="584.5" x2="41" y2="584.5" gradientUnits="userSpaceOnUse">
<stop stop-color="white" stop-opacity="0"/>
<stop offset="1" stop-color="#FFFF00"/>
</linearGradient>
</defs>
</svg>
