<svg width="358" height="478" viewBox="0 0 358 478" fill="none" xmlns="http://www.w3.org/2000/svg">
<g filter="url(#filter0_b_1361_2730)">
<path d="M1.67773 290.382V57.731L11.2623 30.1487H122.275L132.07 2.2666H356.096V466.497L353.609 475.363H10.6303L7.0493 465.17V305.672L1.67773 290.382Z" fill="black" fill-opacity="0.72"/>
<path d="M1.67773 290.382V57.731L11.2623 30.1487H122.275L132.07 2.2666H356.096V466.497L353.609 475.363H10.6303L7.0493 465.17V305.672L1.67773 290.382Z" stroke="#554420" stroke-width="3"/>
</g>
<g filter="url(#filter1_b_1361_2730)">
<path d="M4.39062 289.358V64.1817L13.8285 37.4856H123.142L132.787 10.4993H353.836L354.062 461.43L352.028 469.663L13.2062 468.396L9.67997 458.53V304.157L4.39062 289.358Z" stroke="#FFFF00" stroke-width="3"/>
</g>
<rect x="355.645" y="220.132" width="0.904127" height="39.2664" fill="#FFFF00"/>
<rect x="6.4248" y="365.163" width="1.13016" height="39.2664" fill="#FFFF00"/>
<rect x="171.88" y="477.263" width="3.16665" height="14.014" transform="rotate(-90 171.88 477.263)" fill="#FFFF00"/>
<path d="M2.13016 66.8667H1V57.6834L11.1714 29.1836H21.3429L20.4387 31.7169H11.6235L2.13016 59.2667V66.8667Z" fill="#FFFF00"/>
<path d="M22.3599 28.8661L21.3428 31.7161H21.9079L22.925 28.8661H22.3599Z" fill="#FFFF00"/>
<path d="M24.1685 28.8661L23.1514 31.7161H23.7164L24.7336 28.8661H24.1685Z" fill="#FFFF00"/>
<path d="M25.9761 28.8661L24.959 31.7161H25.5241L26.5412 28.8661H25.9761Z" fill="#FFFF00"/>
<path d="M27.7847 28.8661L26.7676 31.7161H27.3327L28.3498 28.8661H27.7847Z" fill="#FFFF00"/>
<path d="M357.001 1.00002V14.2999H356.323H355.645V4.16666H352.028L351.576 1.00002H357.001Z" fill="#FFFF00"/>
<path d="M354.74 477.263L356.548 470.296V477.263H354.74Z" fill="#FFFF00"/>
<line x1="282.184" y1="475.263" x2="303.431" y2="475.263" stroke="url(#paint0_linear_1361_2730)" stroke-width="4"/>
<line x1="354.549" y1="117.532" x2="354.549" y2="57.9992" stroke="url(#paint1_linear_1361_2730)" stroke-width="4"/>
<path d="M157.016 45.32H153.512V50H150.872V33.2H156.56C157.616 33.2 158.496 33.464 159.2 33.992C159.904 34.504 160.424 35.192 160.76 36.056C161.112 36.92 161.288 37.872 161.288 38.912C161.288 39.696 161.256 40.376 161.192 40.952C161.128 41.528 160.96 42.128 160.688 42.752C160.432 43.376 160.016 43.936 159.44 44.432L161.312 50H158.624L157.016 45.32ZM155.936 42.8C156.72 42.8 157.296 42.6 157.664 42.2C158.048 41.784 158.28 41.312 158.36 40.784C158.456 40.256 158.504 39.632 158.504 38.912C158.504 38.064 158.384 37.424 158.144 36.992C157.904 36.544 157.568 36.248 157.136 36.104C156.704 35.944 156.144 35.864 155.456 35.864H153.512V42.8H155.936ZM170.827 45.608H166.963L166.027 50H163.051L166.987 33.2H170.707L174.955 50H171.811L170.827 45.608ZM167.587 42.8H170.203L168.835 37.616L167.587 42.8ZM178.155 35.792L176.667 35.744V33.2H180.795V50H178.155V35.792ZM186.447 45.32C186.527 46.024 186.815 46.592 187.311 47.024C187.807 47.456 188.455 47.672 189.255 47.672C189.927 47.672 190.471 47.56 190.887 47.336C191.319 47.112 191.631 46.84 191.823 46.52C192.015 46.2 192.111 45.888 192.111 45.584C192.111 44.88 191.935 44.296 191.583 43.832C191.247 43.352 190.823 42.976 190.311 42.704C189.815 42.416 189.135 42.088 188.271 41.72C187.327 41.32 186.575 40.96 186.015 40.64C185.471 40.304 184.999 39.856 184.599 39.296C184.215 38.72 184.023 37.992 184.023 37.112C184.023 36.408 184.223 35.744 184.623 35.12C185.023 34.48 185.631 33.96 186.447 33.56C187.263 33.16 188.263 32.96 189.447 32.96C190.231 32.96 190.879 33.016 191.391 33.128C191.903 33.24 192.423 33.424 192.951 33.68L192.111 36.176C191.535 35.984 191.063 35.848 190.695 35.768C190.343 35.688 189.935 35.648 189.471 35.648C188.559 35.648 187.887 35.808 187.455 36.128C187.023 36.448 186.831 36.856 186.879 37.352C186.927 37.752 187.167 38.096 187.599 38.384C188.047 38.672 188.735 39.024 189.663 39.44C190.751 39.92 191.655 40.376 192.375 40.808C193.095 41.24 193.711 41.832 194.223 42.584C194.751 43.336 195.015 44.256 195.015 45.344C195.015 46.768 194.543 47.944 193.599 48.872C192.655 49.8 191.215 50.264 189.279 50.264C188.095 50.264 187.079 50.048 186.231 49.616C185.399 49.168 184.759 48.6 184.311 47.912C183.879 47.208 183.647 46.48 183.615 45.728L186.447 45.32ZM198.052 33.2H206.068V35.84H200.692V40.088H203.98L203.236 42.608H200.692V47.6H206.02V50H198.052V33.2ZM216.968 35.792L215.48 35.744V33.2H219.608V50H216.968V35.792ZM226.051 38.648V50H223.411V33.2H226.051L232.555 44.48V33.2H235.219V50H232.555L226.051 38.648ZM239.02 33.2H247.036V35.84H241.66V40.088H245.02L244.156 42.608H241.66V50H239.02V33.2ZM259.569 45.56C259.569 47.176 259.073 48.368 258.081 49.136C257.105 49.888 255.929 50.264 254.553 50.264C253.689 50.264 252.873 50.112 252.105 49.808C251.337 49.488 250.705 48.976 250.209 48.272C249.729 47.568 249.489 46.664 249.489 45.56V37.832C249.489 36.184 249.937 34.936 250.833 34.088C251.745 33.24 252.993 32.816 254.577 32.816C256.161 32.816 257.385 33.264 258.249 34.16C259.129 35.056 259.569 36.288 259.569 37.856V45.56ZM256.929 38.72C256.929 38.048 256.873 37.496 256.761 37.064C256.649 36.632 256.417 36.296 256.065 36.056C255.713 35.8 255.201 35.672 254.529 35.672C253.857 35.672 253.345 35.792 252.993 36.032C252.641 36.272 252.409 36.608 252.297 37.04C252.185 37.456 252.129 38.008 252.129 38.696V45.104C252.129 45.872 252.321 46.48 252.705 46.928C253.105 47.36 253.713 47.576 254.529 47.576C255.281 47.576 255.865 47.344 256.281 46.88C256.713 46.416 256.929 45.808 256.929 45.056V38.72Z" fill="#FFFF00"/>
<path d="M288.4 25V28.312C285.584 28.6691 282.967 29.9522 280.959 31.9593C278.952 33.9665 277.669 36.584 277.312 39.4H274V42.6H277.312C277.669 45.416 278.952 48.0335 280.959 50.0407C282.967 52.0478 285.584 53.3309 288.4 53.688V57H291.6V53.688C294.416 53.3309 297.033 52.0478 299.041 50.0407C301.048 48.0335 302.331 45.416 302.688 42.6H306V39.4H302.688C302.331 36.584 301.048 33.9665 299.041 31.9593C297.033 29.9522 294.416 28.6691 291.6 28.312V25M288.4 31.528V34.6H291.6V31.544C295.6 32.2 298.8 35.4 299.472 39.4H296.4V42.6H299.456C298.8 46.6 295.6 49.8 291.6 50.472V47.4H288.4V50.456C284.4 49.8 281.2 46.6 280.528 42.6H283.6V39.4H280.544C281.2 35.4 284.4 32.2 288.4 31.528ZM290 39.4C289.576 39.4 289.169 39.5686 288.869 39.8686C288.569 40.1687 288.4 40.5757 288.4 41C288.4 41.4243 288.569 41.8313 288.869 42.1314C289.169 42.4314 289.576 42.6 290 42.6C290.424 42.6 290.831 42.4314 291.131 42.1314C291.431 41.8313 291.6 41.4243 291.6 41C291.6 40.5757 291.431 40.1687 291.131 39.8686C290.831 39.5686 290.424 39.4 290 39.4Z" fill="#F01E31"/>
<line x1="320.5" y1="148.5" x2="41.5" y2="148.5" stroke="url(#paint2_linear_1361_2730)" stroke-linecap="round"/>
<line x1="320.5" y1="225.5" x2="41.5" y2="225.5" stroke="url(#paint3_linear_1361_2730)" stroke-linecap="round"/>
<line x1="320.5" y1="302.5" x2="41.5" y2="302.5" stroke="url(#paint4_linear_1361_2730)" stroke-linecap="round"/>
<line x1="320.5" y1="379.5" x2="41.5" y2="379.5" stroke="url(#paint5_linear_1361_2730)" stroke-linecap="round"/>
<path d="M70.56 102H75.38C76.6867 102 77.6533 102.407 78.28 103.22C78.92 104.033 79.24 105.1 79.24 106.42C79.24 107.26 79.1667 108.033 79.02 108.74C78.8733 109.433 78.5267 110.053 77.98 110.6C77.4333 111.133 76.6133 111.4 75.52 111.4H72V116H70.56V102ZM75.34 110C76.0733 110 76.62 109.82 76.98 109.46C77.3533 109.087 77.58 108.66 77.66 108.18C77.7533 107.7 77.8 107.16 77.8 106.56C77.8 105.453 77.58 104.653 77.14 104.16C76.7 103.653 76.0733 103.4 75.26 103.4H72V110H75.34ZM89.8375 101.98V112.28C89.8375 113.627 89.4242 114.607 88.5975 115.22C87.7842 115.833 86.7975 116.14 85.6375 116.14C84.4775 116.14 83.4842 115.833 82.6575 115.22C81.8308 114.607 81.4175 113.627 81.4175 112.28V101.98H82.8575V112.12C82.8575 112.947 83.1042 113.6 83.5975 114.08C84.1042 114.56 84.7775 114.8 85.6175 114.8C86.4708 114.8 87.1442 114.56 87.6375 114.08C88.1442 113.6 88.3975 112.947 88.3975 112.12V101.98H89.8375ZM92.8256 102H97.1456C98.239 102 99.1123 102.287 99.7656 102.86C100.432 103.433 100.766 104.293 100.766 105.44C100.766 105.96 100.679 106.46 100.506 106.94C100.332 107.407 99.979 107.82 99.4456 108.18L99.4256 108.22V108.24C100.012 108.507 100.499 108.94 100.886 109.54C101.286 110.127 101.486 110.893 101.486 111.84C101.486 112.973 101.166 113.953 100.526 114.78C99.8856 115.593 98.8323 116 97.3656 116H92.8256V102ZM96.8456 107.74C97.5923 107.74 98.1656 107.56 98.5656 107.2C98.979 106.84 99.1856 106.287 99.1856 105.54C99.1856 104.74 98.9723 104.187 98.5456 103.88C98.119 103.56 97.539 103.4 96.8056 103.4H94.2656V107.74H96.8456ZM97.0456 114.66C97.939 114.66 98.6323 114.453 99.1256 114.04C99.6323 113.627 99.8856 112.873 99.8856 111.78C99.8856 110.9 99.6323 110.24 99.1256 109.8C98.6323 109.36 98.0323 109.14 97.3256 109.14H94.2656V114.66H97.0456ZM103.744 102H105.184V114.7H110.964V116H103.744V102ZM113.592 103.36L112.272 103.32V102H115.032V116H113.592V103.36ZM125.118 115.54C123.931 115.98 122.825 116.2 121.798 116.2C120.638 116.2 119.698 115.893 118.978 115.28C118.258 114.667 117.898 113.687 117.898 112.34V105.92C117.898 104.907 118.038 104.14 118.318 103.62C118.611 103.1 119.051 102.66 119.638 102.3C120.225 101.967 120.945 101.8 121.798 101.8C122.838 101.8 123.778 102.02 124.618 102.46L124.198 103.6C123.478 103.333 122.778 103.2 122.098 103.2C121.365 103.2 120.718 103.387 120.158 103.76C119.611 104.133 119.338 104.793 119.338 105.74V112.3C119.338 113.14 119.571 113.767 120.038 114.18C120.505 114.593 121.165 114.8 122.018 114.8C122.845 114.8 123.785 114.62 124.838 114.26L125.118 115.54ZM133.056 112.34C133.096 112.767 133.25 113.173 133.516 113.56C133.796 113.933 134.17 114.24 134.636 114.48C135.103 114.707 135.643 114.82 136.256 114.82C137.203 114.82 137.976 114.607 138.576 114.18C139.19 113.74 139.496 113.107 139.496 112.28C139.496 111.693 139.336 111.207 139.016 110.82C138.696 110.42 138.303 110.107 137.836 109.88C137.37 109.64 136.73 109.367 135.916 109.06C135.05 108.74 134.35 108.447 133.816 108.18C133.283 107.9 132.83 107.527 132.456 107.06C132.096 106.58 131.916 105.973 131.916 105.24C131.916 104.653 132.083 104.1 132.416 103.58C132.75 103.047 133.25 102.62 133.916 102.3C134.596 101.967 135.43 101.8 136.416 101.8C137.07 101.8 137.61 101.847 138.036 101.94C138.463 102.033 138.896 102.187 139.336 102.4L138.896 103.76C138.07 103.4 137.256 103.22 136.456 103.22C135.51 103.22 134.763 103.413 134.216 103.8C133.683 104.173 133.423 104.687 133.436 105.34C133.436 105.74 133.576 106.087 133.856 106.38C134.136 106.66 134.483 106.9 134.896 107.1C135.31 107.3 135.87 107.527 136.576 107.78C137.523 108.127 138.296 108.46 138.896 108.78C139.496 109.087 140.003 109.52 140.416 110.08C140.843 110.627 141.056 111.313 141.056 112.14C141.056 113.367 140.663 114.353 139.876 115.1C139.103 115.847 137.903 116.22 136.276 116.22C135.29 116.22 134.443 116.04 133.736 115.68C133.043 115.307 132.51 114.833 132.136 114.26C131.776 113.673 131.583 113.067 131.556 112.44L133.056 112.34ZM149.367 111.48H145.207L143.887 116H142.327L146.447 102H148.107L152.367 116H150.747L149.367 111.48ZM145.587 110H149.007L147.267 104.32L145.587 110ZM154.134 102H155.574V114.7H161.354V116H154.134V102ZM162.943 102H169.623V103.38H164.383V107.74H167.883L167.423 109.14H164.383V114.7H169.583V116H162.943V102Z" fill="white"/>
<path d="M247.767 104.152C247.559 104.28 247.303 104.392 246.999 104.488C246.695 104.584 246.415 104.656 246.159 104.704C245.919 104.736 245.767 104.752 245.703 104.752L245.103 102.808C245.103 102.824 245.263 102.792 245.583 102.712C245.903 102.616 246.263 102.456 246.663 102.232C247.063 101.992 247.431 101.648 247.767 101.2H249.951V118H247.743L247.767 104.152ZM261.936 113.56C261.936 115.176 261.44 116.368 260.448 117.136C259.472 117.888 258.296 118.264 256.92 118.264C256.056 118.264 255.24 118.112 254.472 117.808C253.704 117.488 253.072 116.976 252.576 116.272C252.096 115.568 251.856 114.664 251.856 113.56V105.832C251.856 104.184 252.304 102.936 253.2 102.088C254.112 101.24 255.36 100.816 256.944 100.816C258.528 100.816 259.752 101.264 260.616 102.16C261.496 103.056 261.936 104.288 261.936 105.856V113.56ZM259.752 106.336C259.752 105.28 259.528 104.48 259.08 103.936C258.648 103.392 257.92 103.12 256.896 103.12C255.872 103.12 255.136 103.392 254.688 103.936C254.256 104.464 254.04 105.256 254.04 106.312V113.248C254.04 114.144 254.288 114.84 254.784 115.336C255.296 115.832 256 116.08 256.896 116.08C257.76 116.08 258.448 115.832 258.96 115.336C259.488 114.824 259.752 114.12 259.752 113.224V106.336ZM275.108 113.56C275.108 115.176 274.612 116.368 273.62 117.136C272.644 117.888 271.468 118.264 270.092 118.264C269.228 118.264 268.412 118.112 267.644 117.808C266.876 117.488 266.244 116.976 265.748 116.272C265.268 115.568 265.028 114.664 265.028 113.56V105.832C265.028 104.184 265.476 102.936 266.372 102.088C267.284 101.24 268.532 100.816 270.116 100.816C271.7 100.816 272.924 101.264 273.788 102.16C274.668 103.056 275.108 104.288 275.108 105.856V113.56ZM272.924 106.336C272.924 105.28 272.7 104.48 272.252 103.936C271.82 103.392 271.092 103.12 270.068 103.12C269.044 103.12 268.308 103.392 267.86 103.936C267.428 104.464 267.212 105.256 267.212 106.312V113.248C267.212 114.144 267.46 114.84 267.956 115.336C268.468 115.832 269.172 116.08 270.068 116.08C270.932 116.08 271.62 115.832 272.132 115.336C272.66 114.824 272.924 114.12 272.924 113.224V106.336ZM290.56 100.168L292.264 101.536L279.088 118L277.504 116.584L290.56 100.168ZM281.176 107.464C280.552 107.464 279.976 107.312 279.448 107.008C278.92 106.688 278.496 106.264 278.176 105.736C277.872 105.208 277.72 104.632 277.72 104.008C277.72 103.384 277.872 102.808 278.176 102.28C278.496 101.752 278.92 101.336 279.448 101.032C279.976 100.712 280.552 100.552 281.176 100.552C281.8 100.552 282.376 100.712 282.904 101.032C283.432 101.336 283.848 101.752 284.152 102.28C284.472 102.808 284.632 103.384 284.632 104.008C284.632 104.632 284.472 105.208 284.152 105.736C283.848 106.264 283.432 106.688 282.904 107.008C282.376 107.312 281.8 107.464 281.176 107.464ZM282.52 104.008C282.52 103.656 282.392 103.344 282.136 103.072C281.896 102.8 281.576 102.664 281.176 102.664C280.792 102.664 280.472 102.8 280.215 103.072C279.975 103.344 279.855 103.656 279.855 104.008C279.855 104.36 279.975 104.672 280.215 104.944C280.472 105.216 280.792 105.352 281.176 105.352C281.576 105.352 281.896 105.216 282.136 104.944C282.392 104.672 282.52 104.36 282.52 104.008ZM288.64 118.264C288.016 118.264 287.44 118.112 286.912 117.808C286.384 117.488 285.96 117.064 285.64 116.536C285.336 116.008 285.184 115.432 285.184 114.808C285.184 114.184 285.336 113.608 285.64 113.08C285.96 112.552 286.384 112.136 286.912 111.832C287.44 111.512 288.016 111.352 288.64 111.352C289.264 111.352 289.84 111.512 290.368 111.832C290.896 112.136 291.312 112.552 291.616 113.08C291.936 113.608 292.096 114.184 292.096 114.808C292.096 115.432 291.936 116.008 291.616 116.536C291.312 117.064 290.896 117.488 290.368 117.808C289.84 118.112 289.264 118.264 288.64 118.264ZM289.96 114.808C289.96 114.456 289.84 114.152 289.6 113.896C289.36 113.624 289.04 113.488 288.64 113.488C288.24 113.488 287.92 113.624 287.68 113.896C287.44 114.152 287.32 114.456 287.32 114.808C287.32 115.16 287.44 115.472 287.68 115.744C287.92 116 288.24 116.128 288.64 116.128C289.04 116.128 289.36 116 289.6 115.744C289.84 115.472 289.96 115.16 289.96 114.808Z" fill="#FFFF00"/>
<circle cx="51" cy="109" r="10" fill="#FFFF00" fill-opacity="0.32"/>
<path d="M60.6593 106.412C60.0747 104.23 58.7687 102.311 56.954 100.966C55.1393 99.6209 52.9228 98.93 50.6653 99.0056L51 109L60.6593 106.412Z" fill="#FFFF00"/>
<path d="M70.56 179H72V191.7H77.78V193H70.56V179ZM79.3686 179H84.1886C85.4953 179 86.4619 179.407 87.0886 180.22C87.7286 181.033 88.0486 182.1 88.0486 183.42C88.0486 184.26 87.9753 185.033 87.8286 185.74C87.6819 186.433 87.3353 187.053 86.7886 187.6C86.2419 188.133 85.4219 188.4 84.3286 188.4H80.8086V193H79.3686V179ZM84.1486 187C84.8819 187 85.4286 186.82 85.7886 186.46C86.1619 186.087 86.3886 185.66 86.4686 185.18C86.5619 184.7 86.6086 184.16 86.6086 183.56C86.6086 182.453 86.3886 181.653 85.9486 181.16C85.5086 180.653 84.8819 180.4 84.0686 180.4H80.8086V187H84.1486Z" fill="white"/>
<path d="M255.215 191.544C255.487 192.024 255.871 192.416 256.367 192.72C256.879 193.008 257.423 193.152 257.999 193.152C258.879 193.152 259.591 192.864 260.135 192.288C260.679 191.696 260.951 190.992 260.951 190.176C260.951 189.28 260.623 188.576 259.967 188.064C259.311 187.536 258.463 187.248 257.423 187.2H254.783L259.319 180.384H254.831V178.2H261.743V180.336L258.575 185.088L258.671 185.112C259.439 185.208 260.167 185.48 260.855 185.928C261.543 186.376 262.095 186.968 262.511 187.704C262.927 188.44 263.135 189.264 263.135 190.176C263.135 191.104 262.903 191.96 262.439 192.744C261.991 193.528 261.375 194.152 260.591 194.616C259.807 195.064 258.951 195.288 258.023 195.288C257.159 195.288 256.351 195.088 255.599 194.688C254.847 194.272 254.239 193.712 253.775 193.008L255.215 191.544ZM275.108 190.56C275.108 192.176 274.612 193.368 273.62 194.136C272.644 194.888 271.468 195.264 270.092 195.264C269.228 195.264 268.412 195.112 267.644 194.808C266.876 194.488 266.244 193.976 265.748 193.272C265.268 192.568 265.028 191.664 265.028 190.56V182.832C265.028 181.184 265.476 179.936 266.372 179.088C267.284 178.24 268.532 177.816 270.116 177.816C271.7 177.816 272.924 178.264 273.788 179.16C274.668 180.056 275.108 181.288 275.108 182.856V190.56ZM272.924 183.336C272.924 182.28 272.7 181.48 272.252 180.936C271.82 180.392 271.092 180.12 270.068 180.12C269.044 180.12 268.308 180.392 267.86 180.936C267.428 181.464 267.212 182.256 267.212 183.312V190.248C267.212 191.144 267.46 191.84 267.956 192.336C268.468 192.832 269.172 193.08 270.068 193.08C270.932 193.08 271.62 192.832 272.132 192.336C272.66 191.824 272.924 191.12 272.924 190.224V183.336ZM290.56 177.168L292.264 178.536L279.088 195L277.504 193.584L290.56 177.168ZM281.176 184.464C280.552 184.464 279.976 184.312 279.448 184.008C278.92 183.688 278.496 183.264 278.176 182.736C277.872 182.208 277.72 181.632 277.72 181.008C277.72 180.384 277.872 179.808 278.176 179.28C278.496 178.752 278.92 178.336 279.448 178.032C279.976 177.712 280.552 177.552 281.176 177.552C281.8 177.552 282.376 177.712 282.904 178.032C283.432 178.336 283.848 178.752 284.152 179.28C284.472 179.808 284.632 180.384 284.632 181.008C284.632 181.632 284.472 182.208 284.152 182.736C283.848 183.264 283.432 183.688 282.904 184.008C282.376 184.312 281.8 184.464 281.176 184.464ZM282.52 181.008C282.52 180.656 282.392 180.344 282.136 180.072C281.896 179.8 281.576 179.664 281.176 179.664C280.792 179.664 280.472 179.8 280.215 180.072C279.975 180.344 279.855 180.656 279.855 181.008C279.855 181.36 279.975 181.672 280.215 181.944C280.472 182.216 280.792 182.352 281.176 182.352C281.576 182.352 281.896 182.216 282.136 181.944C282.392 181.672 282.52 181.36 282.52 181.008ZM288.64 195.264C288.016 195.264 287.44 195.112 286.912 194.808C286.384 194.488 285.96 194.064 285.64 193.536C285.336 193.008 285.184 192.432 285.184 191.808C285.184 191.184 285.336 190.608 285.64 190.08C285.96 189.552 286.384 189.136 286.912 188.832C287.44 188.512 288.016 188.352 288.64 188.352C289.264 188.352 289.84 188.512 290.368 188.832C290.896 189.136 291.312 189.552 291.616 190.08C291.936 190.608 292.096 191.184 292.096 191.808C292.096 192.432 291.936 193.008 291.616 193.536C291.312 194.064 290.896 194.488 290.368 194.808C289.84 195.112 289.264 195.264 288.64 195.264ZM289.96 191.808C289.96 191.456 289.84 191.152 289.6 190.896C289.36 190.624 289.04 190.488 288.64 190.488C288.24 190.488 287.92 190.624 287.68 190.896C287.44 191.152 287.32 191.456 287.32 191.808C287.32 192.16 287.44 192.472 287.68 192.744C287.92 193 288.24 193.128 288.64 193.128C289.04 193.128 289.36 193 289.6 192.744C289.84 192.472 289.96 192.16 289.96 191.808Z" fill="#FFFF00"/>
<circle cx="51" cy="186" r="10" fill="#FFFF00" fill-opacity="0.32"/>
<path d="M60.6593 188.588C61.0625 187.083 61.1085 185.505 60.7938 183.98C60.479 182.454 59.8122 181.023 58.8464 179.801C57.8807 178.578 56.6427 177.598 55.2312 176.939C53.8197 176.28 52.2737 175.96 50.7165 176.004L51 186L60.6593 188.588Z" fill="#FFFF00"/>
<path d="M79.84 260.3L76.58 270H75.22L72 260.3V270H70.56V256H72L75.9 267.38L79.84 256H81.28V270H79.84V260.3ZM90.2267 265.48H86.0667L84.7467 270H83.1867L87.3067 256H88.9667L93.2267 270H91.6067L90.2267 265.48ZM86.4467 264H89.8667L88.1267 258.32L86.4467 264ZM100.634 265.36C100.394 265.387 100.18 265.4 99.9936 265.4H96.4336V270H94.9936V256H99.8536C101.134 256 102.087 256.407 102.714 257.22C103.354 258.033 103.674 259.1 103.674 260.42C103.674 261.42 103.567 262.307 103.354 263.08C103.154 263.84 102.694 264.447 101.974 264.9L103.694 270H102.214L100.634 265.36ZM99.8136 264C100.534 264 101.067 263.813 101.414 263.44C101.76 263.053 101.974 262.62 102.054 262.14C102.147 261.647 102.194 261.093 102.194 260.48C102.194 258.427 101.34 257.4 99.6336 257.4H96.4336V264H99.8136ZM108.503 263.5L107.803 264.62V270H106.303V255.98H107.803V262.1L111.903 255.98H113.603L109.403 262.18L114.563 270H112.803L108.503 263.5ZM116.126 256H122.806V257.38H117.566V261.74H121.066L120.606 263.14H117.566V268.7H122.766V270H116.126V256ZM127.103 257.36H123.863V256H131.903V257.36H128.543V270H127.103V257.36ZM134.51 257.36L133.19 257.32V256H135.95V270H134.51V257.36ZM140.496 258.8V270H139.056V256H140.496L147.436 267.18V256H148.896V270H147.436L140.496 258.8ZM158.408 269.38C157.768 269.927 156.915 270.2 155.848 270.2C155.101 270.2 154.408 270.06 153.768 269.78C153.128 269.5 152.608 269.06 152.208 268.46C151.821 267.86 151.628 267.113 151.628 266.22V259.94C151.628 259.007 151.775 258.26 152.068 257.7C152.375 257.127 152.808 256.667 153.368 256.32C153.955 255.987 154.675 255.82 155.528 255.82C156.568 255.82 157.508 256.04 158.348 256.48L157.928 257.6C157.208 257.333 156.521 257.2 155.868 257.2C154.001 257.2 153.068 258.053 153.068 259.76V266.26C153.068 267.073 153.321 267.7 153.828 268.14C154.335 268.567 155.001 268.78 155.828 268.78C156.601 268.78 157.228 268.56 157.708 268.12C158.201 267.68 158.448 267.067 158.448 266.28V265.4H157.188L156.708 264H159.848V270H158.648L158.408 269.38Z" fill="white"/>
<path d="M260.939 258.152C260.731 258.28 260.475 258.392 260.171 258.488C259.867 258.584 259.587 258.656 259.331 258.704C259.091 258.736 258.939 258.752 258.875 258.752L258.275 256.808C258.275 256.824 258.435 256.792 258.755 256.712C259.075 256.616 259.435 256.456 259.835 256.232C260.235 255.992 260.603 255.648 260.939 255.2H263.123V272H260.915L260.939 258.152ZM275.108 267.56C275.108 269.176 274.612 270.368 273.62 271.136C272.644 271.888 271.468 272.264 270.092 272.264C269.228 272.264 268.412 272.112 267.644 271.808C266.876 271.488 266.244 270.976 265.748 270.272C265.268 269.568 265.028 268.664 265.028 267.56V259.832C265.028 258.184 265.476 256.936 266.372 256.088C267.284 255.24 268.532 254.816 270.116 254.816C271.7 254.816 272.924 255.264 273.788 256.16C274.668 257.056 275.108 258.288 275.108 259.856V267.56ZM272.924 260.336C272.924 259.28 272.7 258.48 272.252 257.936C271.82 257.392 271.092 257.12 270.068 257.12C269.044 257.12 268.308 257.392 267.86 257.936C267.428 258.464 267.212 259.256 267.212 260.312V267.248C267.212 268.144 267.46 268.84 267.956 269.336C268.468 269.832 269.172 270.08 270.068 270.08C270.932 270.08 271.62 269.832 272.132 269.336C272.66 268.824 272.924 268.12 272.924 267.224V260.336ZM290.56 254.168L292.264 255.536L279.088 272L277.504 270.584L290.56 254.168ZM281.176 261.464C280.552 261.464 279.976 261.312 279.448 261.008C278.92 260.688 278.496 260.264 278.176 259.736C277.872 259.208 277.72 258.632 277.72 258.008C277.72 257.384 277.872 256.808 278.176 256.28C278.496 255.752 278.92 255.336 279.448 255.032C279.976 254.712 280.552 254.552 281.176 254.552C281.8 254.552 282.376 254.712 282.904 255.032C283.432 255.336 283.848 255.752 284.152 256.28C284.472 256.808 284.632 257.384 284.632 258.008C284.632 258.632 284.472 259.208 284.152 259.736C283.848 260.264 283.432 260.688 282.904 261.008C282.376 261.312 281.8 261.464 281.176 261.464ZM282.52 258.008C282.52 257.656 282.392 257.344 282.136 257.072C281.896 256.8 281.576 256.664 281.176 256.664C280.792 256.664 280.472 256.8 280.215 257.072C279.975 257.344 279.855 257.656 279.855 258.008C279.855 258.36 279.975 258.672 280.215 258.944C280.472 259.216 280.792 259.352 281.176 259.352C281.576 259.352 281.896 259.216 282.136 258.944C282.392 258.672 282.52 258.36 282.52 258.008ZM288.64 272.264C288.016 272.264 287.44 272.112 286.912 271.808C286.384 271.488 285.96 271.064 285.64 270.536C285.336 270.008 285.184 269.432 285.184 268.808C285.184 268.184 285.336 267.608 285.64 267.08C285.96 266.552 286.384 266.136 286.912 265.832C287.44 265.512 288.016 265.352 288.64 265.352C289.264 265.352 289.84 265.512 290.368 265.832C290.896 266.136 291.312 266.552 291.616 267.08C291.936 267.608 292.096 268.184 292.096 268.808C292.096 269.432 291.936 270.008 291.616 270.536C291.312 271.064 290.896 271.488 290.368 271.808C289.84 272.112 289.264 272.264 288.64 272.264ZM289.96 268.808C289.96 268.456 289.84 268.152 289.6 267.896C289.36 267.624 289.04 267.488 288.64 267.488C288.24 267.488 287.92 267.624 287.68 267.896C287.44 268.152 287.32 268.456 287.32 268.808C287.32 269.16 287.44 269.472 287.68 269.744C287.92 270 288.24 270.128 288.64 270.128C289.04 270.128 289.36 270 289.6 269.744C289.84 269.472 289.96 269.16 289.96 268.808Z" fill="#FFFF00"/>
<circle cx="51" cy="263" r="10" fill="#FFFF00" fill-opacity="0.32"/>
<path d="M48.6252 272.714C49.9985 273.05 51.4275 273.09 52.8178 272.833C54.2081 272.576 55.528 272.027 56.6906 271.223C57.8532 270.418 58.832 269.376 59.5624 268.166C60.2927 266.955 60.7581 265.604 60.9277 264.2C61.0974 262.796 60.9675 261.373 60.5466 260.023C60.1257 258.673 59.4234 257.428 58.486 256.37C57.5486 255.311 56.3974 254.464 55.1084 253.883C53.8194 253.302 52.4218 253.001 51.008 253L51 263L48.6252 272.714Z" fill="#FFFF00"/>
<path d="M78.9 332.98V343.28C78.9 344.627 78.4867 345.607 77.66 346.22C76.8467 346.833 75.86 347.14 74.7 347.14C73.54 347.14 72.5467 346.833 71.72 346.22C70.8933 345.607 70.48 344.627 70.48 343.28V332.98H71.92V343.12C71.92 343.947 72.1667 344.6 72.66 345.08C73.1667 345.56 73.84 345.8 74.68 345.8C75.5333 345.8 76.2067 345.56 76.7 345.08C77.2067 344.6 77.46 343.947 77.46 343.12V332.98H78.9ZM83.5681 334.36H80.3281V333H88.3681V334.36H85.0081V347H83.5681V334.36ZM90.975 334.36L89.655 334.32V333H92.415V347H90.975V334.36ZM95.5209 333H96.9609V345.7H102.741V347H95.5209V333ZM105.37 334.36L104.05 334.32V333H106.81V347H105.37V334.36ZM111.595 334.36H108.355V333H116.395V334.36H113.035V347H111.595V334.36ZM123.642 346.2C124.029 346.08 124.342 345.86 124.582 345.54C124.822 345.207 124.942 344.653 124.942 343.88V341.56C124.622 341.827 124.196 342.033 123.662 342.18C123.142 342.327 122.622 342.4 122.102 342.4C120.702 342.4 119.589 342.04 118.762 341.32C117.936 340.587 117.522 339.54 117.522 338.18V333H118.982V338.26C118.982 339.153 119.262 339.833 119.822 340.3C120.382 340.753 121.142 340.98 122.102 340.98C122.836 340.98 123.456 340.84 123.962 340.56C124.482 340.267 124.809 339.86 124.942 339.34V333H126.402V343.88C126.402 345.907 125.616 347.02 124.042 347.22L123.642 346.2ZM134.416 330.66H135.936L129.476 349.28H127.936L134.416 330.66ZM137.904 333H142.224C143.317 333 144.19 333.287 144.844 333.86C145.51 334.433 145.844 335.293 145.844 336.44C145.844 336.96 145.757 337.46 145.584 337.94C145.41 338.407 145.057 338.82 144.524 339.18L144.504 339.22V339.24C145.09 339.507 145.577 339.94 145.964 340.54C146.364 341.127 146.564 341.893 146.564 342.84C146.564 343.973 146.244 344.953 145.604 345.78C144.964 346.593 143.91 347 142.444 347H137.904V333ZM141.924 338.74C142.67 338.74 143.244 338.56 143.644 338.2C144.057 337.84 144.264 337.287 144.264 336.54C144.264 335.74 144.05 335.187 143.624 334.88C143.197 334.56 142.617 334.4 141.884 334.4H139.344V338.74H141.924ZM142.124 345.66C143.017 345.66 143.71 345.453 144.204 345.04C144.71 344.627 144.964 343.873 144.964 342.78C144.964 341.9 144.71 341.24 144.204 340.8C143.71 340.36 143.11 340.14 142.404 340.14H139.344V345.66H142.124ZM157.162 332.98V343.28C157.162 344.627 156.748 345.607 155.922 346.22C155.108 346.833 154.122 347.14 152.962 347.14C151.802 347.14 150.808 346.833 149.982 346.22C149.155 345.607 148.742 344.627 148.742 343.28V332.98H150.182V343.12C150.182 343.947 150.428 344.6 150.922 345.08C151.428 345.56 152.102 345.8 152.942 345.8C153.795 345.8 154.468 345.56 154.962 345.08C155.468 344.6 155.722 343.947 155.722 343.12V332.98H157.162ZM161.19 334.36L159.87 334.32V333H162.63V347H161.19V334.36ZM165.736 333H167.176V345.7H172.956V347H165.736V333ZM174.544 332.98H178.304C179.811 332.98 180.958 333.393 181.744 334.22C182.544 335.047 182.944 336.147 182.944 337.52V343C182.944 345.667 181.531 347 178.704 347H174.544V332.98ZM181.504 337.32C181.504 336.32 181.211 335.58 180.624 335.1C180.051 334.607 179.344 334.36 178.504 334.36H175.984V345.7H178.384C179.278 345.7 180.018 345.533 180.604 345.2C181.204 344.867 181.504 344.2 181.504 343.2V337.32Z" fill="white"/>
<path d="M268.387 345.52C268.771 346.048 269.179 346.448 269.611 346.72C270.059 346.992 270.587 347.128 271.195 347.128C272.123 347.128 272.843 346.84 273.355 346.264C273.867 345.688 274.123 344.992 274.123 344.176C274.123 343.28 273.787 342.56 273.115 342.016C272.459 341.472 271.603 341.2 270.547 341.2H267.619L268.579 332.2H274.963V334.384H270.595L270.115 339.088H271.195C272.123 339.088 272.979 339.32 273.763 339.784C274.547 340.232 275.163 340.848 275.611 341.632C276.075 342.4 276.307 343.248 276.307 344.176C276.307 345.104 276.075 345.96 275.611 346.744C275.163 347.528 274.547 348.152 273.763 348.616C272.979 349.064 272.123 349.288 271.195 349.288C270.331 349.288 269.523 349.088 268.771 348.688C268.019 348.272 267.411 347.712 266.947 347.008L268.387 345.52ZM290.56 331.168L292.264 332.536L279.088 349L277.504 347.584L290.56 331.168ZM281.176 338.464C280.552 338.464 279.976 338.312 279.448 338.008C278.92 337.688 278.496 337.264 278.176 336.736C277.872 336.208 277.72 335.632 277.72 335.008C277.72 334.384 277.872 333.808 278.176 333.28C278.496 332.752 278.92 332.336 279.448 332.032C279.976 331.712 280.552 331.552 281.176 331.552C281.8 331.552 282.376 331.712 282.904 332.032C283.432 332.336 283.848 332.752 284.152 333.28C284.472 333.808 284.632 334.384 284.632 335.008C284.632 335.632 284.472 336.208 284.152 336.736C283.848 337.264 283.432 337.688 282.904 338.008C282.376 338.312 281.8 338.464 281.176 338.464ZM282.52 335.008C282.52 334.656 282.392 334.344 282.136 334.072C281.896 333.8 281.576 333.664 281.176 333.664C280.792 333.664 280.472 333.8 280.215 334.072C279.975 334.344 279.855 334.656 279.855 335.008C279.855 335.36 279.975 335.672 280.215 335.944C280.472 336.216 280.792 336.352 281.176 336.352C281.576 336.352 281.896 336.216 282.136 335.944C282.392 335.672 282.52 335.36 282.52 335.008ZM288.64 349.264C288.016 349.264 287.44 349.112 286.912 348.808C286.384 348.488 285.96 348.064 285.64 347.536C285.336 347.008 285.184 346.432 285.184 345.808C285.184 345.184 285.336 344.608 285.64 344.08C285.96 343.552 286.384 343.136 286.912 342.832C287.44 342.512 288.016 342.352 288.64 342.352C289.264 342.352 289.84 342.512 290.368 342.832C290.896 343.136 291.312 343.552 291.616 344.08C291.936 344.608 292.096 345.184 292.096 345.808C292.096 346.432 291.936 347.008 291.616 347.536C291.312 348.064 290.896 348.488 290.368 348.808C289.84 349.112 289.264 349.264 288.64 349.264ZM289.96 345.808C289.96 345.456 289.84 345.152 289.6 344.896C289.36 344.624 289.04 344.488 288.64 344.488C288.24 344.488 287.92 344.624 287.68 344.896C287.44 345.152 287.32 345.456 287.32 345.808C287.32 346.16 287.44 346.472 287.68 346.744C287.92 347 288.24 347.128 288.64 347.128C289.04 347.128 289.36 347 289.6 346.744C289.84 346.472 289.96 346.16 289.96 345.808Z" fill="#FFFF00"/>
<circle cx="51" cy="340" r="10" fill="#FFFF00" fill-opacity="0.32"/>
<path d="M41.6223 336.527C40.8831 338.524 40.8002 340.704 41.3856 342.75C41.971 344.797 43.1942 346.603 44.8773 347.906C46.5603 349.21 48.6153 349.942 50.7433 349.997C52.8712 350.051 54.9611 349.426 56.7089 348.21C58.4566 346.995 59.7709 345.254 60.4606 343.24C61.1503 341.226 61.1793 339.045 60.5435 337.013C59.9078 334.982 58.6403 333.206 56.9256 331.945C55.2109 330.683 53.1384 330.002 51.0097 330L51 340L41.6223 336.527Z" fill="#FFFF00"/>
<path d="M77.54 423.54C76.3533 423.98 75.2467 424.2 74.22 424.2C73.06 424.2 72.12 423.893 71.4 423.28C70.68 422.667 70.32 421.687 70.32 420.34V413.92C70.32 412.907 70.46 412.14 70.74 411.62C71.0333 411.1 71.4733 410.66 72.06 410.3C72.6467 409.967 73.3667 409.8 74.22 409.8C75.26 409.8 76.2 410.02 77.04 410.46L76.62 411.6C75.9 411.333 75.2 411.2 74.52 411.2C73.7867 411.2 73.14 411.387 72.58 411.76C72.0333 412.133 71.76 412.793 71.76 413.74V420.3C71.76 421.14 71.9933 421.767 72.46 422.18C72.9267 422.593 73.5867 422.8 74.44 422.8C75.2667 422.8 76.2067 422.62 77.26 422.26L77.54 423.54ZM79.2319 410H85.9119V411.38H80.6719V415.74H84.1719L83.7119 417.14H80.6719V422.7H85.8719V424H79.2319V410ZM93.7888 418.42L90.3088 424H88.5288L92.9288 416.98L88.8688 410H90.5288L93.8088 415.5L97.0888 410H98.7688L94.6888 416.92L99.0888 424H97.2688L93.7888 418.42ZM109.244 426.36C108.724 426.053 108.311 425.747 108.004 425.44C107.697 425.147 107.464 424.773 107.304 424.32C107.144 423.867 107.064 423.287 107.064 422.58V411.46C107.064 410.753 107.144 410.173 107.304 409.72C107.464 409.253 107.697 408.867 108.004 408.56C108.311 408.253 108.724 407.953 109.244 407.66L109.824 408.7C109.397 408.953 109.071 409.293 108.844 409.72C108.617 410.147 108.504 410.727 108.504 411.46V422.58C108.504 423.367 108.617 423.947 108.844 424.32C109.071 424.707 109.404 425.053 109.844 425.36L109.244 426.36ZM114.681 411.36H111.441V410H119.481V411.36H116.121V424H114.681V411.36ZM122.088 411.36L120.768 411.32V410H123.528V424H122.088V411.36ZM126.634 410H133.314V411.38H128.074V415.74H131.574L131.114 417.14H128.074V422.7H133.274V424H126.634V410ZM141.571 419.36C141.331 419.387 141.118 419.4 140.931 419.4H137.371V424H135.931V410H140.791C142.071 410 143.024 410.407 143.651 411.22C144.291 412.033 144.611 413.1 144.611 414.42C144.611 415.42 144.504 416.307 144.291 417.08C144.091 417.84 143.631 418.447 142.911 418.9L144.631 424H143.151L141.571 419.36ZM140.751 418C141.471 418 142.004 417.813 142.351 417.44C142.698 417.053 142.911 416.62 142.991 416.14C143.084 415.647 143.131 415.093 143.131 414.48C143.131 412.427 142.278 411.4 140.571 411.4H137.371V418H140.751ZM153.787 411.84C153.6 412 153.373 412.133 153.107 412.24C152.84 412.347 152.6 412.427 152.387 412.48C152.187 412.533 152.06 412.567 152.007 412.58L151.647 411.26C151.647 411.273 151.773 411.247 152.027 411.18C152.293 411.113 152.587 410.987 152.907 410.8C153.227 410.613 153.52 410.347 153.787 410H155.247V424H153.787V411.84ZM157.201 425.36C157.641 425.053 157.974 424.707 158.201 424.32C158.427 423.947 158.541 423.367 158.541 422.58V411.46C158.541 410.727 158.421 410.147 158.181 409.72C157.954 409.293 157.627 408.953 157.201 408.7L157.781 407.66C158.301 407.967 158.714 408.273 159.021 408.58C159.327 408.873 159.561 409.253 159.721 409.72C159.894 410.173 159.981 410.753 159.981 411.46V422.58C159.981 423.287 159.894 423.867 159.721 424.32C159.561 424.773 159.327 425.147 159.021 425.44C158.714 425.747 158.301 426.053 157.781 426.36L157.201 425.36Z" fill="white"/>
<path d="M268.387 422.52C268.771 423.048 269.179 423.448 269.611 423.72C270.059 423.992 270.587 424.128 271.195 424.128C272.123 424.128 272.843 423.84 273.355 423.264C273.867 422.688 274.123 421.992 274.123 421.176C274.123 420.28 273.787 419.56 273.115 419.016C272.459 418.472 271.603 418.2 270.547 418.2H267.619L268.579 409.2H274.963V411.384H270.595L270.115 416.088H271.195C272.123 416.088 272.979 416.32 273.763 416.784C274.547 417.232 275.163 417.848 275.611 418.632C276.075 419.4 276.307 420.248 276.307 421.176C276.307 422.104 276.075 422.96 275.611 423.744C275.163 424.528 274.547 425.152 273.763 425.616C272.979 426.064 272.123 426.288 271.195 426.288C270.331 426.288 269.523 426.088 268.771 425.688C268.019 425.272 267.411 424.712 266.947 424.008L268.387 422.52ZM290.56 408.168L292.264 409.536L279.088 426L277.504 424.584L290.56 408.168ZM281.176 415.464C280.552 415.464 279.976 415.312 279.448 415.008C278.92 414.688 278.496 414.264 278.176 413.736C277.872 413.208 277.72 412.632 277.72 412.008C277.72 411.384 277.872 410.808 278.176 410.28C278.496 409.752 278.92 409.336 279.448 409.032C279.976 408.712 280.552 408.552 281.176 408.552C281.8 408.552 282.376 408.712 282.904 409.032C283.432 409.336 283.848 409.752 284.152 410.28C284.472 410.808 284.632 411.384 284.632 412.008C284.632 412.632 284.472 413.208 284.152 413.736C283.848 414.264 283.432 414.688 282.904 415.008C282.376 415.312 281.8 415.464 281.176 415.464ZM282.52 412.008C282.52 411.656 282.392 411.344 282.136 411.072C281.896 410.8 281.576 410.664 281.176 410.664C280.792 410.664 280.472 410.8 280.215 411.072C279.975 411.344 279.855 411.656 279.855 412.008C279.855 412.36 279.975 412.672 280.215 412.944C280.472 413.216 280.792 413.352 281.176 413.352C281.576 413.352 281.896 413.216 282.136 412.944C282.392 412.672 282.52 412.36 282.52 412.008ZM288.64 426.264C288.016 426.264 287.44 426.112 286.912 425.808C286.384 425.488 285.96 425.064 285.64 424.536C285.336 424.008 285.184 423.432 285.184 422.808C285.184 422.184 285.336 421.608 285.64 421.08C285.96 420.552 286.384 420.136 286.912 419.832C287.44 419.512 288.016 419.352 288.64 419.352C289.264 419.352 289.84 419.512 290.368 419.832C290.896 420.136 291.312 420.552 291.616 421.08C291.936 421.608 292.096 422.184 292.096 422.808C292.096 423.432 291.936 424.008 291.616 424.536C291.312 425.064 290.896 425.488 290.368 425.808C289.84 426.112 289.264 426.264 288.64 426.264ZM289.96 422.808C289.96 422.456 289.84 422.152 289.6 421.896C289.36 421.624 289.04 421.488 288.64 421.488C288.24 421.488 287.92 421.624 287.68 421.896C287.44 422.152 287.32 422.456 287.32 422.808C287.32 423.16 287.44 423.472 287.68 423.744C287.92 424 288.24 424.128 288.64 424.128C289.04 424.128 289.36 424 289.6 423.744C289.84 423.472 289.96 423.16 289.96 422.808Z" fill="#FFFF00"/>
<circle cx="51" cy="417" r="10" fill="#FFFF00" fill-opacity="0.32"/>
<circle cx="51" cy="417" r="10" fill="#FFFF00"/>
<defs>
<filter id="filter0_b_1361_2730" x="-11.8223" y="-11.2334" width="381.418" height="500.097" filterUnits="userSpaceOnUse" color-interpolation-filters="sRGB">
<feFlood flood-opacity="0" result="BackgroundImageFix"/>
<feGaussianBlur in="BackgroundImageFix" stdDeviation="6"/>
<feComposite in2="SourceAlpha" operator="in" result="effect1_backgroundBlur_1361_2730"/>
<feBlend mode="normal" in="SourceGraphic" in2="effect1_backgroundBlur_1361_2730" result="shape"/>
</filter>
<filter id="filter1_b_1361_2730" x="-29.1094" y="-23.0007" width="416.672" height="526.168" filterUnits="userSpaceOnUse" color-interpolation-filters="sRGB">
<feFlood flood-opacity="0" result="BackgroundImageFix"/>
<feGaussianBlur in="BackgroundImageFix" stdDeviation="16"/>
<feComposite in2="SourceAlpha" operator="in" result="effect1_backgroundBlur_1361_2730"/>
<feBlend mode="normal" in="SourceGraphic" in2="effect1_backgroundBlur_1361_2730" result="shape"/>
</filter>
<linearGradient id="paint0_linear_1361_2730" x1="303.431" y1="477.263" x2="282.184" y2="477.263" gradientUnits="userSpaceOnUse">
<stop stop-color="#FFBF34" stop-opacity="0"/>
<stop offset="0.518905" stop-color="#FFBF34"/>
<stop offset="1" stop-color="#FFDD34" stop-opacity="0"/>
</linearGradient>
<linearGradient id="paint1_linear_1361_2730" x1="356.549" y1="57.9992" x2="356.549" y2="117.532" gradientUnits="userSpaceOnUse">
<stop stop-color="#FFBF34" stop-opacity="0"/>
<stop offset="0.518905" stop-color="#FFBF34"/>
<stop offset="1" stop-color="#FFDD34" stop-opacity="0"/>
</linearGradient>
<linearGradient id="paint2_linear_1361_2730" x1="321" y1="147.5" x2="41" y2="147.5" gradientUnits="userSpaceOnUse">
<stop stop-color="white" stop-opacity="0"/>
<stop offset="1" stop-color="#FFFF00"/>
</linearGradient>
<linearGradient id="paint3_linear_1361_2730" x1="321" y1="224.5" x2="41" y2="224.5" gradientUnits="userSpaceOnUse">
<stop stop-color="white" stop-opacity="0"/>
<stop offset="1" stop-color="#FFFF00"/>
</linearGradient>
<linearGradient id="paint4_linear_1361_2730" x1="321" y1="301.5" x2="41" y2="301.5" gradientUnits="userSpaceOnUse">
<stop stop-color="white" stop-opacity="0"/>
<stop offset="1" stop-color="#FFFF00"/>
</linearGradient>
<linearGradient id="paint5_linear_1361_2730" x1="321" y1="378.5" x2="41" y2="378.5" gradientUnits="userSpaceOnUse">
<stop stop-color="white" stop-opacity="0"/>
<stop offset="1" stop-color="#FFFF00"/>
</linearGradient>
</defs>
</svg>
