<svg width="1344" height="726" viewBox="0 0 1344 726" fill="none" xmlns="http://www.w3.org/2000/svg">
<path d="M50 105H42L46 101L50 105Z" fill="#D43812"/>
<path d="M106.002 45L48.002 103" stroke="#D43812" stroke-width="5.66"/>
<path d="M108 47L108 39L104 43L108 47Z" fill="#D43812"/>
<rect x="42" y="105" width="2" height="32" fill="#D43812"/>
<path d="M44 107V105H46L44 107Z" fill="#D43812"/>
<path d="M42 137V135L40 137H42Z" fill="#D43812"/>
<rect x="108" y="39" width="76" height="1.9999" fill="#D43812"/>
<path d="M108 43V41H110L108 43Z" fill="#D43812"/>
<rect x="24" y="153" width="2" height="120" fill="#D43812"/>
<path d="M26 155V153H28L26 155Z" fill="#D43812"/>
<path d="M28 153H24L26 151L28 153Z" fill="#D43812"/>
<path d="M41.002 138L27.002 152" stroke="#D43812" stroke-width="2.83"/>
<path d="M44 137H40L42 139L44 137Z" fill="#D43812"/>
<path d="M9 290H7L8 289L9 290Z" fill="#D43812"/>
<path d="M24.5 273.5L8.5 289.5" stroke="#D43812" stroke-width="1.41"/>
<path d="M26 273H24L25 274L26 273Z" fill="#D43812"/>
<g opacity="0.4">
<path d="M256 0L256 2L257 1L256 0Z" fill="#D43812"/>
<path d="M256.501 1.5L458.501 203.5" stroke="#D43812" stroke-width="1.41"/>
<path d="M459 203L459 205L458 204L459 203Z" fill="#D43812"/>
<path d="M541 204L541 206L542 205L541 204Z" fill="#D43812"/>
<path d="M541.501 205.5L549.501 213.5" stroke="#D43812" stroke-width="1.41"/>
<path d="M550 213L550 215L549 214L550 213Z" fill="#D43812"/>
<rect x="459" y="204" width="82" height="0.9999" fill="#D43812"/>
<path d="M459 204V203L460 204H459Z" fill="#D43812"/>
<path d="M541 206V205H540L541 206Z" fill="#D43812"/>
<rect x="240" width="16" height="0.9999" fill="#D43812"/>
<path d="M256 2V1H255L256 2Z" fill="#D43812"/>
</g>
<rect x="479" y="369" width="24" height="0.9999" fill="#D43812"/>
<path d="M503 369V368L502 369H503Z" fill="#D43812"/>
<rect x="613" y="258" width="65" height="0.9999" fill="#D43812"/>
<path d="M613 260V259H614L613 260Z" fill="#D43812"/>
<path d="M503 370L503 368L504 369L503 370Z" fill="#D43812"/>
<path d="M612.501 259.5L503.501 368.5" stroke="#D43812" stroke-width="1.41"/>
<path d="M613 260L613 258L612 259L613 260Z" fill="#D43812"/>
<path d="M103 103H99L101 101L103 103Z" fill="#D43812"/>
<path d="M112.001 92L102.001 102" stroke="#D43812" stroke-width="2.83"/>
<path d="M115 91H111L113 93L115 91Z" fill="#D43812"/>
<path d="M119 103H115L117 101L119 103Z" fill="#D43812"/>
<path d="M128.001 92L118.001 102" stroke="#D43812" stroke-width="2.83"/>
<path d="M131 91H127L129 93L131 91Z" fill="#D43812"/>
<path d="M135 103H131L133 101L135 103Z" fill="#D43812"/>
<path d="M144.001 92L134.001 102" stroke="#D43812" stroke-width="2.83"/>
<path d="M147 91H143L145 93L147 91Z" fill="#D43812"/>
<path d="M238 315H234L236 313L238 315Z" fill="#D43812"/>
<path d="M247.001 304L237.001 314" stroke="#D43812" stroke-width="2.83"/>
<path d="M248 305L248 301L246 303L248 305Z" fill="#D43812"/>
<g opacity="0.6">
<path d="M260 315H256L258 313L260 315Z" fill="#D43812"/>
<path d="M276.001 297L259.001 314" stroke="#D43812" stroke-width="2.83"/>
<path d="M277 298L277 294L275 296L277 298Z" fill="#D43812"/>
</g>
<g opacity="0.2">
<path d="M280 315H276L278 313L280 315Z" fill="#D43812"/>
<path d="M318.001 275L279.001 314" stroke="#D43812" stroke-width="2.83"/>
<path d="M319 276L319 272L317 274L319 276Z" fill="#D43812"/>
</g>
<rect opacity="0.1" x="418" y="313" width="44" height="2" fill="#D43812"/>
<g opacity="0.4">
<rect y="342" width="1" height="178" fill="#D43812"/>
<path d="M1 343V342H2L1 343Z" fill="#D43812"/>
<path d="M2 342H0L1 341L2 342Z" fill="#D43812"/>
<path d="M50.5 292.5L1.5 341.5" stroke="#D43812" stroke-width="1.41"/>
<path d="M52 292H50L51 293L52 292Z" fill="#D43812"/>
</g>
<g opacity="0.4">
<path d="M771 450H763L767 446L771 450Z" fill="#D43812"/>
<path d="M773.001 444L769.001 448" stroke="#D43812" stroke-width="5.66"/>
<path d="M775 446L775 438L771 442L775 446Z" fill="#D43812"/>
</g>
<g opacity="0.2">
<path d="M686 362L686 360L687 361L686 362Z" fill="#D43812"/>
<path d="M686.501 361.5L728.501 403.5" stroke="#D43812" stroke-width="1.41"/>
<path d="M730 404H728L729 403L730 404Z" fill="#D43812"/>
</g>
<g opacity="0.6">
<path d="M686 363L686 359L688 361L686 363Z" fill="#D43812"/>
<path d="M687 362L693 368" stroke="#D43812" stroke-width="2.83"/>
<path d="M695.999 369H691.999L693.999 367L695.999 369Z" fill="#D43812"/>
</g>
<path d="M596 85V77L588 85H596Z" fill="#D43812"/>
<g opacity="0.4">
<path d="M607 96V88L599 96H607Z" fill="#D43812"/>
</g>
<g opacity="0.2">
<path d="M614 103V99L610 103H614Z" fill="#D43812"/>
</g>
<rect y="483" width="1" height="5" fill="#D43812"/>
<g opacity="0.6">
<path d="M370 465H366L368 463L370 465Z" fill="#D43812"/>
<path d="M379.001 454L369.001 464" stroke="#D43812" stroke-width="2.83"/>
<path d="M382 453H378L380 455L382 453Z" fill="#D43812"/>
</g>
<g opacity="0.2">
<path d="M113 465H111L112 464L113 465Z" fill="#D43812"/>
<path d="M123.501 453.5L112.501 464.5" stroke="#D43812" stroke-width="1.41"/>
<path d="M125 453H123L124 454L125 453Z" fill="#D43812"/>
<path d="M127 465H125L126 464L127 465Z" fill="#D43812"/>
<path d="M137.501 453.5L126.501 464.5" stroke="#D43812" stroke-width="1.41"/>
<path d="M139 453H137L138 454L139 453Z" fill="#D43812"/>
<path d="M141 465H139L140 464L141 465Z" fill="#D43812"/>
<path d="M151.501 453.5L140.501 464.5" stroke="#D43812" stroke-width="1.41"/>
<path d="M153 453H151L152 454L153 453Z" fill="#D43812"/>
<path d="M155 465H153L154 464L155 465Z" fill="#D43812"/>
<path d="M165.501 453.5L154.501 464.5" stroke="#D43812" stroke-width="1.41"/>
<path d="M167 453H165L166 454L167 453Z" fill="#D43812"/>
<path d="M169 465H167L168 464L169 465Z" fill="#D43812"/>
<path d="M179.501 453.5L168.501 464.5" stroke="#D43812" stroke-width="1.41"/>
<path d="M181 453H179L180 454L181 453Z" fill="#D43812"/>
<path d="M183 465H181L182 464L183 465Z" fill="#D43812"/>
<path d="M193.501 453.5L182.501 464.5" stroke="#D43812" stroke-width="1.41"/>
<path d="M195 453H193L194 454L195 453Z" fill="#D43812"/>
<path d="M197 465H195L196 464L197 465Z" fill="#D43812"/>
<path d="M207.501 453.5L196.501 464.5" stroke="#D43812" stroke-width="1.41"/>
<path d="M209 453H207L208 454L209 453Z" fill="#D43812"/>
<path d="M211 465H209L210 464L211 465Z" fill="#D43812"/>
<path d="M221.501 453.5L210.501 464.5" stroke="#D43812" stroke-width="1.41"/>
<path d="M223 453H221L222 454L223 453Z" fill="#D43812"/>
<path d="M225 465H223L224 464L225 465Z" fill="#D43812"/>
<path d="M235.501 453.5L224.501 464.5" stroke="#D43812" stroke-width="1.41"/>
<path d="M237 453H235L236 454L237 453Z" fill="#D43812"/>
<path d="M239 465H237L238 464L239 465Z" fill="#D43812"/>
<path d="M249.501 453.5L238.501 464.5" stroke="#D43812" stroke-width="1.41"/>
<path d="M251 453H249L250 454L251 453Z" fill="#D43812"/>
<path d="M253 465H251L252 464L253 465Z" fill="#D43812"/>
<path d="M263.501 453.5L252.501 464.5" stroke="#D43812" stroke-width="1.41"/>
<path d="M265 453H263L264 454L265 453Z" fill="#D43812"/>
<path d="M267 465H265L266 464L267 465Z" fill="#D43812"/>
<path d="M277.501 453.5L266.501 464.5" stroke="#D43812" stroke-width="1.41"/>
<path d="M279 453H277L278 454L279 453Z" fill="#D43812"/>
<path d="M281 465H279L280 464L281 465Z" fill="#D43812"/>
<path d="M291.501 453.5L280.501 464.5" stroke="#D43812" stroke-width="1.41"/>
<path d="M293 453H291L292 454L293 453Z" fill="#D43812"/>
<path d="M295 465H293L294 464L295 465Z" fill="#D43812"/>
<path d="M305.501 453.5L294.501 464.5" stroke="#D43812" stroke-width="1.41"/>
<path d="M307 453H305L306 454L307 453Z" fill="#D43812"/>
<path d="M309 465H307L308 464L309 465Z" fill="#D43812"/>
<path d="M319.501 453.5L308.501 464.5" stroke="#D43812" stroke-width="1.41"/>
<path d="M321 453H319L320 454L321 453Z" fill="#D43812"/>
</g>
<path d="M184 41V39H186L184 41Z" fill="#D43812"/>
<path d="M50 621H42L46 625L50 621Z" fill="#D43812"/>
<path d="M106.002 681L48.002 623" stroke="#D43812" stroke-width="5.66"/>
<path d="M108 679L108 687L104 683L108 679Z" fill="#D43812"/>
<rect width="2" height="32" transform="matrix(1 0 0 -1 42 621)" fill="#D43812"/>
<path d="M44 619V621H46L44 619Z" fill="#D43812"/>
<path d="M42 589V591L40 589H42Z" fill="#D43812"/>
<rect width="76" height="1.9999" transform="matrix(1 0 0 -1 108 687)" fill="#D43812"/>
<path d="M108 683V685H110L108 683Z" fill="#D43812"/>
<rect width="2" height="120" transform="matrix(1 0 0 -1 24 573)" fill="#D43812"/>
<path d="M26 571V573H28L26 571Z" fill="#D43812"/>
<path d="M28 573H24L26 575L28 573Z" fill="#D43812"/>
<path d="M41.002 588L27.002 574" stroke="#D43812" stroke-width="2.83"/>
<path d="M44 589H40L42 587L44 589Z" fill="#D43812"/>
<path d="M9 436H7L8 437L9 436Z" fill="#D43812"/>
<path d="M24.5 452.5L8.5 436.5" stroke="#D43812" stroke-width="1.41"/>
<path d="M26 453H24L25 452L26 453Z" fill="#D43812"/>
<g opacity="0.4">
<path d="M256 726L256 724L257 725L256 726Z" fill="#D43812"/>
<path d="M256.501 724.5L458.501 522.5" stroke="#D43812" stroke-width="1.41"/>
<path d="M459 523L459 521L458 522L459 523Z" fill="#D43812"/>
<path d="M541 522L541 520L542 521L541 522Z" fill="#D43812"/>
<path d="M541.501 520.5L549.501 512.5" stroke="#D43812" stroke-width="1.41"/>
<path d="M550 513L550 511L549 512L550 513Z" fill="#D43812"/>
<rect width="82" height="0.9999" transform="matrix(1 0 0 -1 459 522)" fill="#D43812"/>
<path d="M459 522V523L460 522H459Z" fill="#D43812"/>
<path d="M541 520V521H540L541 520Z" fill="#D43812"/>
<rect width="16" height="0.9999" transform="matrix(1 0 0 -1 240 726)" fill="#D43812"/>
<path d="M256 724V725H255L256 724Z" fill="#D43812"/>
</g>
<rect width="24" height="0.9999" transform="matrix(1 0 0 -1 479 357)" fill="#D43812"/>
<path d="M503 357V358L502 357H503Z" fill="#D43812"/>
<rect width="65" height="0.9999" transform="matrix(1 0 0 -1 613 468)" fill="#D43812"/>
<path d="M613 466V467H614L613 466Z" fill="#D43812"/>
<path d="M503 356L503 358L504 357L503 356Z" fill="#D43812"/>
<path d="M612.501 466.5L503.501 357.5" stroke="#D43812" stroke-width="1.41"/>
<path d="M613 466L613 468L612 467L613 466Z" fill="#D43812"/>
<path d="M103 623H99L101 625L103 623Z" fill="#D43812"/>
<path d="M112.001 634L102.001 624" stroke="#D43812" stroke-width="2.83"/>
<path d="M115 635H111L113 633L115 635Z" fill="#D43812"/>
<path d="M119 623H115L117 625L119 623Z" fill="#D43812"/>
<path d="M128.001 634L118.001 624" stroke="#D43812" stroke-width="2.83"/>
<path d="M131 635H127L129 633L131 635Z" fill="#D43812"/>
<path d="M135 623H131L133 625L135 623Z" fill="#D43812"/>
<path d="M144.001 634L134.001 624" stroke="#D43812" stroke-width="2.83"/>
<path d="M147 635H143L145 633L147 635Z" fill="#D43812"/>
<path d="M238 411H234L236 413L238 411Z" fill="#D43812"/>
<path d="M247.001 422L237.001 412" stroke="#D43812" stroke-width="2.83"/>
<path d="M248 421L248 425L246 423L248 421Z" fill="#D43812"/>
<g opacity="0.6">
<path d="M260 411H256L258 413L260 411Z" fill="#D43812"/>
<path d="M276.001 429L259.001 412" stroke="#D43812" stroke-width="2.83"/>
<path d="M277 428L277 432L275 430L277 428Z" fill="#D43812"/>
</g>
<g opacity="0.2">
<path d="M280 411H276L278 413L280 411Z" fill="#D43812"/>
<path d="M318.001 451L279.001 412" stroke="#D43812" stroke-width="2.83"/>
<path d="M319 450L319 454L317 452L319 450Z" fill="#D43812"/>
</g>
<rect opacity="0.1" width="44" height="2" transform="matrix(1 0 0 -1 418 413)" fill="#D43812"/>
<g opacity="0.4">
<rect width="1" height="178" transform="matrix(1 0 0 -1 0 384)" fill="#D43812"/>
<path d="M1 383V384H2L1 383Z" fill="#D43812"/>
<path d="M2 384H0L1 385L2 384Z" fill="#D43812"/>
<path d="M50.5 433.5L1.5 384.5" stroke="#D43812" stroke-width="1.41"/>
<path d="M52 434H50L51 433L52 434Z" fill="#D43812"/>
</g>
<g opacity="0.4">
<path d="M771 276H763L767 280L771 276Z" fill="#D43812"/>
<path d="M773.001 282L769.001 278" stroke="#D43812" stroke-width="5.66"/>
<path d="M775 280L775 288L771 284L775 280Z" fill="#D43812"/>
</g>
<g opacity="0.2">
<path d="M686 364L686 366L687 365L686 364Z" fill="#D43812"/>
<path d="M686.501 364.5L728.501 322.5" stroke="#D43812" stroke-width="1.41"/>
<path d="M730 322H728L729 323L730 322Z" fill="#D43812"/>
</g>
<g opacity="0.6">
<path d="M686 363L686 367L688 365L686 363Z" fill="#D43812"/>
<path d="M687 364L693 358" stroke="#D43812" stroke-width="2.83"/>
<path d="M695.999 357H691.999L693.999 359L695.999 357Z" fill="#D43812"/>
</g>
<path d="M596 641V649L588 641H596Z" fill="#D43812"/>
<g opacity="0.4">
<path d="M607 630V638L599 630H607Z" fill="#D43812"/>
</g>
<g opacity="0.2">
<path d="M614 623V627L610 623H614Z" fill="#D43812"/>
</g>
<rect width="1" height="5" transform="matrix(1 0 0 -1 0 243)" fill="#D43812"/>
<g opacity="0.6">
<path d="M370 261H366L368 263L370 261Z" fill="#D43812"/>
<path d="M379.001 272L369.001 262" stroke="#D43812" stroke-width="2.83"/>
<path d="M382 273H378L380 271L382 273Z" fill="#D43812"/>
</g>
<g opacity="0.2">
<path d="M113 261H111L112 262L113 261Z" fill="#D43812"/>
<path d="M123.501 272.5L112.501 261.5" stroke="#D43812" stroke-width="1.41"/>
<path d="M125 273H123L124 272L125 273Z" fill="#D43812"/>
<path d="M127 261H125L126 262L127 261Z" fill="#D43812"/>
<path d="M137.501 272.5L126.501 261.5" stroke="#D43812" stroke-width="1.41"/>
<path d="M139 273H137L138 272L139 273Z" fill="#D43812"/>
<path d="M141 261H139L140 262L141 261Z" fill="#D43812"/>
<path d="M151.501 272.5L140.501 261.5" stroke="#D43812" stroke-width="1.41"/>
<path d="M153 273H151L152 272L153 273Z" fill="#D43812"/>
<path d="M155 261H153L154 262L155 261Z" fill="#D43812"/>
<path d="M165.501 272.5L154.501 261.5" stroke="#D43812" stroke-width="1.41"/>
<path d="M167 273H165L166 272L167 273Z" fill="#D43812"/>
<path d="M169 261H167L168 262L169 261Z" fill="#D43812"/>
<path d="M179.501 272.5L168.501 261.5" stroke="#D43812" stroke-width="1.41"/>
<path d="M181 273H179L180 272L181 273Z" fill="#D43812"/>
<path d="M183 261H181L182 262L183 261Z" fill="#D43812"/>
<path d="M193.501 272.5L182.501 261.5" stroke="#D43812" stroke-width="1.41"/>
<path d="M195 273H193L194 272L195 273Z" fill="#D43812"/>
<path d="M197 261H195L196 262L197 261Z" fill="#D43812"/>
<path d="M207.501 272.5L196.501 261.5" stroke="#D43812" stroke-width="1.41"/>
<path d="M209 273H207L208 272L209 273Z" fill="#D43812"/>
<path d="M211 261H209L210 262L211 261Z" fill="#D43812"/>
<path d="M221.501 272.5L210.501 261.5" stroke="#D43812" stroke-width="1.41"/>
<path d="M223 273H221L222 272L223 273Z" fill="#D43812"/>
<path d="M225 261H223L224 262L225 261Z" fill="#D43812"/>
<path d="M235.501 272.5L224.501 261.5" stroke="#D43812" stroke-width="1.41"/>
<path d="M237 273H235L236 272L237 273Z" fill="#D43812"/>
<path d="M239 261H237L238 262L239 261Z" fill="#D43812"/>
<path d="M249.501 272.5L238.501 261.5" stroke="#D43812" stroke-width="1.41"/>
<path d="M251 273H249L250 272L251 273Z" fill="#D43812"/>
<path d="M253 261H251L252 262L253 261Z" fill="#D43812"/>
<path d="M263.501 272.5L252.501 261.5" stroke="#D43812" stroke-width="1.41"/>
<path d="M265 273H263L264 272L265 273Z" fill="#D43812"/>
<path d="M267 261H265L266 262L267 261Z" fill="#D43812"/>
<path d="M277.501 272.5L266.501 261.5" stroke="#D43812" stroke-width="1.41"/>
<path d="M279 273H277L278 272L279 273Z" fill="#D43812"/>
<path d="M281 261H279L280 262L281 261Z" fill="#D43812"/>
<path d="M291.501 272.5L280.501 261.5" stroke="#D43812" stroke-width="1.41"/>
<path d="M293 273H291L292 272L293 273Z" fill="#D43812"/>
<path d="M295 261H293L294 262L295 261Z" fill="#D43812"/>
<path d="M305.501 272.5L294.501 261.5" stroke="#D43812" stroke-width="1.41"/>
<path d="M307 273H305L306 272L307 273Z" fill="#D43812"/>
<path d="M309 261H307L308 262L309 261Z" fill="#D43812"/>
<path d="M319.501 272.5L308.501 261.5" stroke="#D43812" stroke-width="1.41"/>
<path d="M321 273H319L320 272L321 273Z" fill="#D43812"/>
</g>
<path d="M184 685V687H186L184 685Z" fill="#D43812"/>
<path d="M1294 105H1302L1298 101L1294 105Z" fill="#D43812"/>
<path d="M1238 45L1296 103" stroke="#D43812" stroke-width="5.66"/>
<path d="M1236 47L1236 39L1240 43L1236 47Z" fill="#D43812"/>
<rect width="2" height="32" transform="matrix(-1 0 0 1 1302 105)" fill="#D43812"/>
<path d="M1300 107V105H1298L1300 107Z" fill="#D43812"/>
<path d="M1302 137V135L1304 137H1302Z" fill="#D43812"/>
<rect width="76" height="1.9999" transform="matrix(-1 0 0 1 1236 39)" fill="#D43812"/>
<path d="M1236 43V41H1234L1236 43Z" fill="#D43812"/>
<rect width="2" height="120" transform="matrix(-1 0 0 1 1320 153)" fill="#D43812"/>
<path d="M1318 155V153H1316L1318 155Z" fill="#D43812"/>
<path d="M1316 153H1320L1318 151L1316 153Z" fill="#D43812"/>
<path d="M1303 138L1317 152" stroke="#D43812" stroke-width="2.83"/>
<path d="M1300 137H1304L1302 139L1300 137Z" fill="#D43812"/>
<path d="M1335 290H1337L1336 289L1335 290Z" fill="#D43812"/>
<path d="M1319.5 273.5L1335.5 289.5" stroke="#D43812" stroke-width="1.41"/>
<path d="M1318 273H1320L1319 274L1318 273Z" fill="#D43812"/>
<g opacity="0.4">
<path d="M1088 0L1088 2L1087 1L1088 0Z" fill="#D43812"/>
<path d="M1087.5 1.5L885.499 203.5" stroke="#D43812" stroke-width="1.41"/>
<path d="M885 203L885 205L886 204L885 203Z" fill="#D43812"/>
<path d="M803 204L803 206L802 205L803 204Z" fill="#D43812"/>
<path d="M802.499 205.5L794.499 213.5" stroke="#D43812" stroke-width="1.41"/>
<path d="M794 213L794 215L795 214L794 213Z" fill="#D43812"/>
<rect width="82" height="0.9999" transform="matrix(-1 0 0 1 885 204)" fill="#D43812"/>
<path d="M885 204V203L884 204H885Z" fill="#D43812"/>
<path d="M803 206V205H804L803 206Z" fill="#D43812"/>
<rect width="16" height="0.9999" transform="matrix(-1 0 0 1 1104 0)" fill="#D43812"/>
<path d="M1088 2V1H1089L1088 2Z" fill="#D43812"/>
</g>
<rect width="24" height="0.9999" transform="matrix(-1 0 0 1 865 369)" fill="#D43812"/>
<path d="M841 369V368L842 369H841Z" fill="#D43812"/>
<rect width="65" height="0.9999" transform="matrix(-1 0 0 1 731 258)" fill="#D43812"/>
<path d="M731 260V259H730L731 260Z" fill="#D43812"/>
<path d="M841 370L841 368L840 369L841 370Z" fill="#D43812"/>
<path d="M731.499 259.5L840.499 368.5" stroke="#D43812" stroke-width="1.41"/>
<path d="M731 260L731 258L732 259L731 260Z" fill="#D43812"/>
<path d="M1241 103H1245L1243 101L1241 103Z" fill="#D43812"/>
<path d="M1232 92L1242 102" stroke="#D43812" stroke-width="2.83"/>
<path d="M1229 91H1233L1231 93L1229 91Z" fill="#D43812"/>
<path d="M1225 103H1229L1227 101L1225 103Z" fill="#D43812"/>
<path d="M1216 92L1226 102" stroke="#D43812" stroke-width="2.83"/>
<path d="M1213 91H1217L1215 93L1213 91Z" fill="#D43812"/>
<path d="M1209 103H1213L1211 101L1209 103Z" fill="#D43812"/>
<path d="M1200 92L1210 102" stroke="#D43812" stroke-width="2.83"/>
<path d="M1197 91H1201L1199 93L1197 91Z" fill="#D43812"/>
<path d="M1106 315H1110L1108 313L1106 315Z" fill="#D43812"/>
<path d="M1097 304L1107 314" stroke="#D43812" stroke-width="2.83"/>
<path d="M1096 305L1096 301L1098 303L1096 305Z" fill="#D43812"/>
<g opacity="0.6">
<path d="M1084 315H1088L1086 313L1084 315Z" fill="#D43812"/>
<path d="M1068 297L1085 314" stroke="#D43812" stroke-width="2.83"/>
<path d="M1067 298L1067 294L1069 296L1067 298Z" fill="#D43812"/>
</g>
<g opacity="0.2">
<path d="M1064 315H1068L1066 313L1064 315Z" fill="#D43812"/>
<path d="M1026 275L1065 314" stroke="#D43812" stroke-width="2.83"/>
<path d="M1025 276L1025 272L1027 274L1025 276Z" fill="#D43812"/>
</g>
<rect opacity="0.1" width="44" height="2" transform="matrix(-1 0 0 1 926 313)" fill="#D43812"/>
<g opacity="0.4">
<rect width="1" height="178" transform="matrix(-1 0 0 1 1344 342)" fill="#D43812"/>
<path d="M1343 343V342H1342L1343 343Z" fill="#D43812"/>
<path d="M1342 342H1344L1343 341L1342 342Z" fill="#D43812"/>
<path d="M1293.5 292.5L1342.5 341.5" stroke="#D43812" stroke-width="1.41"/>
<path d="M1292 292H1294L1293 293L1292 292Z" fill="#D43812"/>
</g>
<g opacity="0.4">
<path d="M573 450H581L577 446L573 450Z" fill="#D43812"/>
<path d="M570.999 444L574.999 448" stroke="#D43812" stroke-width="5.66"/>
<path d="M569 446L569 438L573 442L569 446Z" fill="#D43812"/>
</g>
<g opacity="0.2">
<path d="M658 362L658 360L657 361L658 362Z" fill="#D43812"/>
<path d="M657.499 361.5L615.499 403.5" stroke="#D43812" stroke-width="1.41"/>
<path d="M614 404H616L615 403L614 404Z" fill="#D43812"/>
</g>
<g opacity="0.6">
<path d="M658 363L658 359L656 361L658 363Z" fill="#D43812"/>
<path d="M657 362L651 368" stroke="#D43812" stroke-width="2.83"/>
<path d="M648.001 369H652.001L650.001 367L648.001 369Z" fill="#D43812"/>
</g>
<path d="M748 85V77L756 85H748Z" fill="#D43812"/>
<g opacity="0.4">
<path d="M737 96V88L745 96H737Z" fill="#D43812"/>
</g>
<g opacity="0.2">
<path d="M730 103V99L734 103H730Z" fill="#D43812"/>
</g>
<rect width="1" height="5" transform="matrix(-1 0 0 1 1344 483)" fill="#D43812"/>
<g opacity="0.6">
<path d="M974 465H978L976 463L974 465Z" fill="#D43812"/>
<path d="M964.999 454L974.999 464" stroke="#D43812" stroke-width="2.83"/>
<path d="M962 453H966L964 455L962 453Z" fill="#D43812"/>
</g>
<g opacity="0.2">
<path d="M1231 465H1233L1232 464L1231 465Z" fill="#D43812"/>
<path d="M1220.5 453.5L1231.5 464.5" stroke="#D43812" stroke-width="1.41"/>
<path d="M1219 453H1221L1220 454L1219 453Z" fill="#D43812"/>
<path d="M1217 465H1219L1218 464L1217 465Z" fill="#D43812"/>
<path d="M1206.5 453.5L1217.5 464.5" stroke="#D43812" stroke-width="1.41"/>
<path d="M1205 453H1207L1206 454L1205 453Z" fill="#D43812"/>
<path d="M1203 465H1205L1204 464L1203 465Z" fill="#D43812"/>
<path d="M1192.5 453.5L1203.5 464.5" stroke="#D43812" stroke-width="1.41"/>
<path d="M1191 453H1193L1192 454L1191 453Z" fill="#D43812"/>
<path d="M1189 465H1191L1190 464L1189 465Z" fill="#D43812"/>
<path d="M1178.5 453.5L1189.5 464.5" stroke="#D43812" stroke-width="1.41"/>
<path d="M1177 453H1179L1178 454L1177 453Z" fill="#D43812"/>
<path d="M1175 465H1177L1176 464L1175 465Z" fill="#D43812"/>
<path d="M1164.5 453.5L1175.5 464.5" stroke="#D43812" stroke-width="1.41"/>
<path d="M1163 453H1165L1164 454L1163 453Z" fill="#D43812"/>
<path d="M1161 465H1163L1162 464L1161 465Z" fill="#D43812"/>
<path d="M1150.5 453.5L1161.5 464.5" stroke="#D43812" stroke-width="1.41"/>
<path d="M1149 453H1151L1150 454L1149 453Z" fill="#D43812"/>
<path d="M1147 465H1149L1148 464L1147 465Z" fill="#D43812"/>
<path d="M1136.5 453.5L1147.5 464.5" stroke="#D43812" stroke-width="1.41"/>
<path d="M1135 453H1137L1136 454L1135 453Z" fill="#D43812"/>
<path d="M1133 465H1135L1134 464L1133 465Z" fill="#D43812"/>
<path d="M1122.5 453.5L1133.5 464.5" stroke="#D43812" stroke-width="1.41"/>
<path d="M1121 453H1123L1122 454L1121 453Z" fill="#D43812"/>
<path d="M1119 465H1121L1120 464L1119 465Z" fill="#D43812"/>
<path d="M1108.5 453.5L1119.5 464.5" stroke="#D43812" stroke-width="1.41"/>
<path d="M1107 453H1109L1108 454L1107 453Z" fill="#D43812"/>
<path d="M1105 465H1107L1106 464L1105 465Z" fill="#D43812"/>
<path d="M1094.5 453.5L1105.5 464.5" stroke="#D43812" stroke-width="1.41"/>
<path d="M1093 453H1095L1094 454L1093 453Z" fill="#D43812"/>
<path d="M1091 465H1093L1092 464L1091 465Z" fill="#D43812"/>
<path d="M1080.5 453.5L1091.5 464.5" stroke="#D43812" stroke-width="1.41"/>
<path d="M1079 453H1081L1080 454L1079 453Z" fill="#D43812"/>
<path d="M1077 465H1079L1078 464L1077 465Z" fill="#D43812"/>
<path d="M1066.5 453.5L1077.5 464.5" stroke="#D43812" stroke-width="1.41"/>
<path d="M1065 453H1067L1066 454L1065 453Z" fill="#D43812"/>
<path d="M1063 465H1065L1064 464L1063 465Z" fill="#D43812"/>
<path d="M1052.5 453.5L1063.5 464.5" stroke="#D43812" stroke-width="1.41"/>
<path d="M1051 453H1053L1052 454L1051 453Z" fill="#D43812"/>
<path d="M1049 465H1051L1050 464L1049 465Z" fill="#D43812"/>
<path d="M1038.5 453.5L1049.5 464.5" stroke="#D43812" stroke-width="1.41"/>
<path d="M1037 453H1039L1038 454L1037 453Z" fill="#D43812"/>
<path d="M1035 465H1037L1036 464L1035 465Z" fill="#D43812"/>
<path d="M1024.5 453.5L1035.5 464.5" stroke="#D43812" stroke-width="1.41"/>
<path d="M1023 453H1025L1024 454L1023 453Z" fill="#D43812"/>
</g>
<path d="M1160 41V39H1158L1160 41Z" fill="#D43812"/>
</svg>
